<?xml version="1.0" encoding="utf-8" ?>
<svg baseProfile="full" height="1060" version="1.1" width="2048" xmlns="http://www.w3.org/2000/svg" xmlns:ev="http://www.w3.org/2001/xml-events" xmlns:xlink="http://www.w3.org/1999/xlink"><defs /><polygon fill="#6e6e6e" points="710.0,954.5 709.0,954.5 708.0,954.5 707.0,954.5 706.0,954.5 705.5,954.0 705.0,953.5 704.0,953.5 703.5,953.0 703.0,952.5 702.5,952.0 702.0,951.5 701.5,951.0 701.0,950.5 700.5,950.0 700.5,949.0 700.0,948.5 699.5,948.0 699.5,947.0 699.5,946.0 699.0,945.5 698.5,945.0 698.5,944.0 698.5,943.0 698.5,942.0 698.5,941.0 698.5,940.0 698.5,939.0 698.5,938.0 698.5,937.0 698.5,936.0 698.0,935.5 697.5,935.0 697.5,934.0 697.5,933.0 697.5,932.0 697.5,931.0 698.0,930.5 698.5,930.0 698.5,929.0 698.5,928.0 698.5,927.0 698.5,926.0 698.5,925.0 698.5,924.0 698.5,923.0 698.5,922.0 699.0,921.5 699.5,921.0 699.5,920.0 699.5,919.0 699.5,918.0 700.0,917.5 700.5,917.0 700.5,916.0 700.5,915.0 700.5,914.0 701.0,913.5 701.5,913.0 701.5,912.0 701.5,911.0 702.0,910.5 702.5,910.0 702.5,909.0 702.5,908.0 703.0,907.5 703.5,907.0 703.5,906.0 704.0,905.5 704.5,905.0 704.5,904.0 705.0,903.5 705.5,903.0 705.5,902.0 706.0,901.5 706.5,901.0 706.5,900.0 707.0,899.5 707.5,899.0 707.5,898.0 708.0,897.5 708.5,897.0 708.5,896.0 708.5,895.0 709.0,894.5 709.5,894.0 709.5,893.0 710.0,892.5 710.5,892.0 710.5,891.0 711.0,890.5 711.5,890.0 711.5,889.0 711.5,888.0 711.5,887.0 711.5,886.0 711.5,885.0 711.5,884.0 712.0,883.5 712.5,883.0 712.0,882.5 711.5,882.0 711.5,881.0 711.5,880.0 711.5,879.0 711.0,878.5 710.5,878.0 710.5,877.0 710.5,876.0 710.5,875.0 710.5,874.0 710.0,873.5 709.5,873.0 709.5,872.0 709.5,871.0 709.5,870.0 709.5,869.0 709.0,868.5 708.5,868.0 708.5,867.0 708.5,866.0 708.5,865.0 708.5,864.0 708.5,863.0 708.5,862.0 708.5,861.0 708.5,860.0 708.5,859.0 708.5,858.0 709.0,857.5 709.5,857.0 709.5,856.0 709.5,855.0 710.0,854.5 710.5,854.0 710.5,853.0 711.0,852.5 711.5,852.0 712.0,851.5 712.5,851.0 713.0,850.5 713.5,850.0 714.0,849.5 714.5,849.0 715.0,848.5 715.5,848.0 716.0,847.5 717.0,847.5 717.5,847.0 718.0,846.5 719.0,846.5 719.5,846.0 720.0,845.5 721.0,845.5 722.0,845.5 722.5,845.0 723.0,844.5 724.0,844.5 725.0,844.5 725.5,844.0 726.0,843.5 727.0,843.5 728.0,843.5 729.0,843.5 730.0,843.5 731.0,843.5 731.5,843.0 732.0,842.5 733.0,842.5 734.0,842.5 735.0,842.5 736.0,842.5 737.0,842.5 737.5,842.0 738.0,841.5 739.0,841.5 740.0,841.5 741.0,841.5 742.0,841.5 742.5,841.0 743.0,840.5 744.0,840.5 745.0,840.5 745.5,840.0 746.0,839.5 747.0,839.5 747.5,839.0 748.0,838.5 749.0,838.5 749.5,838.0 750.0,837.5 751.0,837.5 751.5,837.0 752.0,836.5 752.5,836.0 753.0,835.5 754.0,835.5 754.5,835.0 755.0,834.5 755.5,834.0 756.0,833.5 756.5,833.0 757.0,832.5 757.5,832.0 758.0,831.5 758.5,831.0 759.0,830.5 759.5,830.0 760.0,829.5 760.5,829.0 760.5,828.0 761.0,827.5 761.5,827.0 762.0,826.5 762.5,826.0 762.5,825.0 763.0,824.5 763.5,824.0 764.0,823.5 764.5,823.0 765.0,822.5 765.5,822.0 765.5,821.0 766.0,820.5 766.5,820.0 767.0,819.5 767.5,819.0 767.5,818.0 768.0,817.5 768.5,817.0 769.0,816.5 769.5,816.0 769.5,815.0 770.0,814.5 770.5,814.0 771.0,813.5 771.5,813.0 772.0,812.5 772.5,812.0 772.5,811.0 773.0,810.5 773.5,810.0 774.0,809.5 774.5,809.0 774.5,808.0 775.0,807.5 775.5,807.0 776.0,806.5 776.5,806.0 776.5,805.0 777.0,804.5 777.5,804.0 778.0,803.5 778.5,803.0 779.0,802.5 779.5,802.0 779.5,801.0 780.0,800.5 780.5,800.0 781.0,799.5 781.5,799.0 781.5,798.0 782.0,797.5 782.5,797.0 783.0,796.5 783.5,796.0 783.5,795.0 784.0,794.5 784.5,794.0 785.0,793.5 785.5,793.0 785.5,792.0 786.0,791.5 786.5,791.0 787.0,790.5 787.5,790.0 788.0,789.5 788.5,789.0 788.5,788.0 789.0,787.5 789.5,787.0 790.0,786.5 790.5,786.0 790.5,785.0 791.0,784.5 791.5,784.0 792.0,783.5 792.5,783.0 792.5,782.0 793.0,781.5 793.5,781.0 794.0,780.5 794.5,780.0 794.5,779.0 795.0,778.5 795.5,778.0 796.0,777.5 796.5,777.0 797.0,776.5 797.5,776.0 797.5,775.0 798.0,774.5 798.5,774.0 799.0,773.5 799.5,773.0 799.5,772.0 800.0,771.5 800.5,771.0 801.0,770.5 801.5,770.0 801.5,769.0 802.0,768.5 802.5,768.0 803.0,767.5 803.5,767.0 804.0,766.5 804.5,766.0 804.5,765.0 805.0,764.5 805.5,764.0 806.0,763.5 806.5,763.0 806.5,762.0 807.0,761.5 807.5,761.0 808.0,760.5 808.5,760.0 808.5,759.0 809.0,758.5 809.5,758.0 810.0,757.5 810.5,757.0 811.0,756.5 811.5,756.0 811.5,755.0 812.0,754.5 812.5,754.0 813.0,753.5 813.5,753.0 813.5,752.0 814.0,751.5 814.5,751.0 815.0,750.5 815.5,750.0 815.5,749.0 816.0,748.5 816.5,748.0 817.0,747.5 817.5,747.0 817.5,746.0 818.0,745.5 818.5,745.0 819.0,744.5 819.5,744.0 820.0,743.5 820.5,743.0 820.5,742.0 821.0,741.5 821.5,741.0 822.0,740.5 822.5,740.0 822.5,739.0 823.0,738.5 823.5,738.0 824.0,737.5 824.5,737.0 824.5,736.0 825.0,735.5 825.5,735.0 826.0,734.5 826.5,734.0 827.0,733.5 827.5,733.0 827.5,732.0 828.0,731.5 828.5,731.0 829.0,730.5 829.5,730.0 829.5,729.0 830.0,728.5 830.5,728.0 831.0,727.5 831.5,727.0 832.0,726.5 832.5,726.0 832.5,725.0 833.0,724.5 833.5,724.0 834.0,723.5 834.5,723.0 834.5,722.0 835.0,721.5 835.5,721.0 836.0,720.5 836.5,720.0 836.5,719.0 837.0,718.5 837.5,718.0 838.0,717.5 838.5,717.0 838.5,716.0 839.0,715.5 839.5,715.0 840.0,714.5 840.5,714.0 840.5,713.0 841.0,712.5 841.5,712.0 842.0,711.5 842.5,711.0 842.5,710.0 843.0,709.5 843.5,709.0 843.5,708.0 843.5,707.0 844.0,706.5 844.5,706.0 844.5,705.0 845.0,704.5 845.5,704.0 845.5,703.0 845.5,702.0 845.5,701.0 846.0,700.5 846.5,700.0 846.5,699.0 846.5,698.0 847.0,697.5 847.5,697.0 847.5,696.0 847.5,695.0 847.5,694.0 848.0,693.5 848.5,693.0 848.5,692.0 848.5,691.0 849.0,690.5 849.5,690.0 849.5,689.0 849.5,688.0 850.0,687.5 850.5,687.0 850.5,686.0 851.0,685.5 851.5,685.0 852.0,684.5 852.5,684.0 852.5,683.0 853.0,682.5 853.5,682.0 853.5,681.0 854.0,680.5 854.5,680.0 855.0,679.5 855.5,679.0 856.0,678.5 856.5,678.0 856.5,677.0 857.0,676.5 857.5,676.0 858.0,675.5 858.5,675.0 859.0,674.5 859.5,674.0 860.0,673.5 860.5,673.0 861.0,672.5 861.5,672.0 862.0,671.5 863.0,671.5 863.5,671.0 864.0,670.5 864.5,670.0 865.0,669.5 865.5,669.0 866.0,668.5 867.0,668.5 867.5,668.0 868.0,667.5 868.5,667.0 869.0,666.5 870.0,666.5 870.5,666.0 871.0,665.5 872.0,665.5 872.5,665.0 873.0,664.5 874.0,664.5 874.5,664.0 875.0,663.5 876.0,663.5 876.5,663.0 877.0,662.5 878.0,662.5 878.5,662.0 879.0,661.5 880.0,661.5 880.5,661.0 881.0,660.5 881.5,660.0 882.0,659.5 882.5,659.0 883.0,658.5 884.0,658.5 884.5,658.0 885.0,657.5 885.5,657.0 886.0,656.5 886.5,656.0 887.0,655.5 888.0,655.5 888.5,655.0 889.0,654.5 889.5,654.0 890.0,653.5 890.5,653.0 891.0,652.5 891.5,652.0 892.0,651.5 892.5,651.0 893.0,650.5 894.0,650.5 894.5,650.0 895.0,649.5 895.5,649.0 896.0,648.5 896.5,648.0 897.0,647.5 897.5,647.0 898.0,646.5 898.5,646.0 899.0,645.5 900.0,645.5 900.5,645.0 901.0,644.5 901.5,644.0 902.0,643.5 902.5,643.0 903.0,642.5 903.5,642.0 904.0,641.5 904.5,641.0 905.0,640.5 906.0,640.5 906.5,640.0 907.0,639.5 907.5,639.0 908.0,638.5 908.5,638.0 909.0,637.5 909.5,637.0 910.0,636.5 910.5,636.0 911.0,635.5 911.5,635.0 912.0,634.5 913.0,634.5 913.5,634.0 914.0,633.5 914.5,633.0 915.0,632.5 915.5,632.0 916.0,631.5 916.5,631.0 917.0,630.5 917.5,630.0 918.0,629.5 918.5,629.0 919.0,628.5 919.5,628.0 920.0,627.5 921.0,627.5 921.5,627.0 922.0,626.5 922.5,626.0 923.0,625.5 923.5,625.0 924.0,624.5 924.5,624.0 925.0,623.5 925.5,623.0 926.0,622.5 926.5,622.0 927.0,621.5 927.5,621.0 928.0,620.5 928.5,620.0 929.0,619.5 930.0,619.5 930.5,619.0 931.0,618.5 931.5,618.0 932.0,617.5 932.5,617.0 933.0,616.5 933.5,616.0 934.0,615.5 934.5,615.0 935.0,614.5 935.5,614.0 936.0,613.5 936.5,613.0 937.0,612.5 937.5,612.0 938.0,611.5 938.5,611.0 939.0,610.5 939.5,610.0 940.0,609.5 940.5,609.0 941.0,608.5 941.5,608.0 942.0,607.5 942.5,607.0 943.0,606.5 943.5,606.0 944.0,605.5 944.5,605.0 945.0,604.5 945.5,604.0 946.0,603.5 946.5,603.0 947.0,602.5 947.5,602.0 948.0,601.5 948.5,601.0 949.0,600.5 949.5,600.0 950.0,599.5 950.5,599.0 951.0,598.5 951.5,598.0 952.0,597.5 952.5,597.0 952.5,596.0 953.0,595.5 953.5,595.0 954.0,594.5 954.5,594.0 954.5,593.0 954.5,592.0 954.5,591.0 954.5,590.0 954.0,589.5 953.5,589.0 953.5,588.0 953.0,587.5 952.0,587.5 951.5,587.0 951.0,586.5 950.5,586.0 950.0,585.5 949.0,585.5 948.5,585.0 948.0,584.5 947.0,584.5 946.5,584.0 946.0,583.5 945.0,583.5 944.5,583.0 944.0,582.5 943.0,582.5 942.0,582.5 941.5,582.0 941.0,581.5 940.0,581.5 939.0,581.5 938.0,581.5 937.5,581.0 937.0,580.5 936.0,580.5 935.0,580.5 934.0,580.5 933.5,580.0 933.0,579.5 932.0,579.5 931.0,579.5 930.0,579.5 929.5,579.0 929.0,578.5 928.0,578.5 927.0,578.5 926.5,578.0 926.0,577.5 925.0,577.5 924.0,577.5 923.0,577.5 922.5,577.0 922.0,576.5 921.0,576.5 920.0,576.5 919.0,576.5 918.5,576.0 918.0,575.5 917.0,575.5 916.0,575.5 915.5,575.0 915.0,574.5 914.0,574.5 913.0,574.5 912.5,574.0 912.0,573.5 911.0,573.5 910.0,573.5 909.5,573.0 909.0,572.5 908.0,572.5 907.0,572.5 906.0,572.5 905.5,572.0 905.0,571.5 904.0,571.5 903.0,571.5 902.5,571.0 902.0,570.5 901.0,570.5 900.0,570.5 899.5,570.0 899.0,569.5 898.0,569.5 897.0,569.5 896.5,569.0 896.0,568.5 895.0,568.5 894.0,568.5 893.5,568.0 893.0,567.5 892.0,567.5 891.0,567.5 890.5,567.0 890.0,566.5 889.0,566.5 888.0,566.5 887.5,566.0 887.0,565.5 886.0,565.5 885.0,565.5 884.5,565.0 884.0,564.5 883.0,564.5 882.5,564.0 882.0,563.5 881.0,563.5 880.0,563.5 879.5,563.0 879.0,562.5 878.0,562.5 877.5,562.0 877.0,561.5 876.0,561.5 875.0,561.5 874.5,561.0 874.0,560.5 873.0,560.5 872.5,560.0 872.0,559.5 871.0,559.5 870.5,559.0 870.0,558.5 869.0,558.5 868.5,558.0 868.0,557.5 867.0,557.5 866.5,557.0 866.0,556.5 865.0,556.5 864.5,556.0 864.0,555.5 863.0,555.5 862.5,555.0 862.0,554.5 861.0,554.5 860.5,554.0 860.0,553.5 859.0,553.5 858.5,553.0 858.0,552.5 857.0,552.5 856.5,552.0 856.0,551.5 855.0,551.5 854.5,551.0 854.0,550.5 853.5,550.0 853.0,549.5 852.0,549.5 851.5,549.0 851.0,548.5 850.5,548.0 850.0,547.5 849.0,547.5 848.5,547.0 848.0,546.5 847.5,546.0 847.0,545.5 846.0,545.5 845.5,545.0 845.0,544.5 844.5,544.0 844.0,543.5 843.0,543.5 842.5,543.0 842.0,542.5 841.5,542.0 841.0,541.5 840.0,541.5 839.5,541.0 839.0,540.5 838.0,540.5 837.0,540.5 836.5,540.0 836.0,539.5 835.0,539.5 834.0,539.5 833.5,539.0 833.0,538.5 832.0,538.5 831.0,538.5 830.0,538.5 829.0,538.5 828.0,538.5 827.5,538.0 827.0,537.5 826.0,537.5 825.0,537.5 824.0,537.5 823.0,537.5 822.0,537.5 821.0,537.5 820.0,537.5 819.0,537.5 818.0,537.5 817.0,537.5 816.0,537.5 815.0,537.5 814.0,537.5 813.0,537.5 812.0,537.5 811.0,537.5 810.0,537.5 809.0,537.5 808.0,537.5 807.0,537.5 806.5,538.0 806.0,538.5 805.0,538.5 804.0,538.5 803.0,538.5 802.0,538.5 801.0,538.5 800.0,538.5 799.5,539.0 799.0,539.5 798.0,539.5 797.0,539.5 796.0,539.5 795.0,539.5 794.5,540.0 794.0,540.5 793.0,540.5 792.0,540.5 791.0,540.5 790.0,540.5 789.5,541.0 789.0,541.5 788.0,541.5 787.0,541.5 786.5,542.0 786.0,542.5 785.0,542.5 784.0,542.5 783.0,542.5 782.5,543.0 782.0,543.5 781.0,543.5 780.5,544.0 780.0,544.5 779.0,544.5 778.0,544.5 777.5,545.0 777.0,545.5 776.0,545.5 775.5,546.0 775.0,546.5 774.0,546.5 773.0,546.5 772.5,547.0 772.0,547.5 771.5,548.0 771.0,548.5 770.0,548.5 769.5,549.0 769.0,549.5 768.0,549.5 767.5,550.0 767.0,550.5 766.0,550.5 765.5,551.0 765.0,551.5 764.0,551.5 763.5,552.0 763.0,552.5 762.5,553.0 762.0,553.5 761.0,553.5 760.5,554.0 760.0,554.5 759.0,554.5 758.5,555.0 758.0,555.5 757.5,556.0 757.0,556.5 756.0,556.5 755.5,557.0 755.0,557.5 754.5,558.0 754.0,558.5 753.0,558.5 752.5,559.0 752.0,559.5 751.5,560.0 751.0,560.5 750.0,560.5 749.5,561.0 749.0,561.5 748.0,561.5 747.5,562.0 747.0,562.5 746.0,562.5 745.5,563.0 745.0,563.5 744.0,563.5 743.5,564.0 743.0,564.5 742.0,564.5 741.0,564.5 740.5,565.0 740.0,565.5 739.0,565.5 738.0,565.5 737.0,565.5 736.0,565.5 735.5,566.0 735.0,566.5 734.0,566.5 733.0,566.5 732.0,566.5 731.0,566.5 730.0,566.5 729.0,566.5 728.0,566.5 727.0,566.5 726.5,566.0 726.0,565.5 725.0,565.5 724.0,565.5 723.5,565.0 723.0,564.5 722.0,564.5 721.5,564.0 721.0,563.5 720.0,563.5 719.5,563.0 719.0,562.5 718.5,562.0 718.0,561.5 717.0,561.5 716.5,561.0 716.0,560.5 715.0,560.5 714.5,560.0 714.0,559.5 713.0,559.5 712.5,559.0 712.0,558.5 711.0,558.5 710.5,558.0 710.0,557.5 709.0,557.5 708.5,557.0 708.0,556.5 707.5,556.0 707.0,555.5 706.0,555.5 705.5,555.0 705.0,554.5 704.0,554.5 703.5,554.0 703.0,553.5 702.0,553.5 701.5,553.0 701.0,552.5 700.0,552.5 699.5,552.0 699.0,551.5 698.5,551.0 698.0,550.5 697.0,550.5 696.5,550.0 696.0,549.5 695.0,549.5 694.5,549.0 694.0,548.5 693.5,548.0 693.0,547.5 692.0,547.5 691.5,547.0 691.0,546.5 690.5,546.0 690.0,545.5 689.0,545.5 688.5,545.0 688.0,544.5 687.0,544.5 686.5,544.0 686.0,543.5 685.5,543.0 685.0,542.5 684.5,542.0 684.0,541.5 683.0,541.5 682.5,541.0 682.0,540.5 681.5,540.0 681.0,539.5 680.5,539.0 680.0,538.5 679.0,538.5 678.5,538.0 678.0,537.5 677.5,537.0 677.0,536.5 676.5,536.0 676.0,535.5 675.5,535.0 675.0,534.5 674.5,534.0 674.0,533.5 673.0,533.5 672.5,533.0 672.0,532.5 671.5,532.0 671.0,531.5 670.5,531.0 670.0,530.5 669.5,530.0 669.0,529.5 668.5,529.0 668.5,528.0 668.0,527.5 667.5,527.0 667.0,526.5 666.5,526.0 666.0,525.5 665.5,525.0 665.0,524.5 664.5,524.0 664.5,523.0 664.0,522.5 663.5,522.0 663.5,521.0 663.0,520.5 662.5,520.0 662.5,519.0 662.5,518.0 662.0,517.5 661.5,517.0 661.5,516.0 661.5,515.0 661.5,514.0 661.0,513.5 660.5,513.0 660.5,512.0 660.5,511.0 660.5,510.0 660.5,509.0 660.5,508.0 660.5,507.0 660.5,506.0 660.5,505.0 660.5,504.0 660.5,503.0 660.5,502.0 660.5,501.0 660.5,500.0 661.0,499.5 661.5,499.0 661.5,498.0 661.5,497.0 661.5,496.0 661.5,495.0 661.5,494.0 662.0,493.5 662.5,493.0 662.5,492.0 662.5,491.0 662.5,490.0 662.5,489.0 663.0,488.5 663.5,488.0 663.5,487.0 663.5,486.0 664.0,485.5 664.5,485.0 664.5,484.0 664.5,483.0 665.0,482.5 665.5,482.0 665.5,481.0 666.0,480.5 666.5,480.0 666.5,479.0 666.5,478.0 667.0,477.5 667.5,477.0 667.5,476.0 668.0,475.5 668.5,475.0 668.5,474.0 669.0,473.5 669.5,473.0 669.5,472.0 670.0,471.5 670.5,471.0 670.5,470.0 671.0,469.5 671.5,469.0 671.5,468.0 672.0,467.5 672.5,467.0 672.5,466.0 673.0,465.5 673.5,465.0 673.5,464.0 674.0,463.5 674.5,463.0 675.0,462.5 675.5,462.0 675.5,461.0 676.0,460.5 676.5,460.0 677.0,459.5 677.5,459.0 677.5,458.0 678.0,457.5 678.5,457.0 679.0,456.5 679.5,456.0 680.0,455.5 680.5,455.0 681.0,454.5 681.5,454.0 682.0,453.5 682.5,453.0 682.5,452.0 683.0,451.5 683.5,451.0 684.0,450.5 684.5,450.0 685.0,449.5 685.5,449.0 686.0,448.5 686.5,448.0 687.0,447.5 687.5,447.0 688.0,446.5 689.0,446.5 689.5,446.0 690.0,445.5 690.5,445.0 691.0,444.5 691.5,444.0 692.0,443.5 692.5,443.0 693.0,442.5 693.5,442.0 694.0,441.5 695.0,441.5 695.5,441.0 696.0,440.5 696.5,440.0 697.0,439.5 698.0,439.5 698.5,439.0 699.0,438.5 700.0,438.5 700.5,438.0 701.0,437.5 701.5,437.0 702.0,436.5 703.0,436.5 703.5,436.0 704.0,435.5 705.0,435.5 705.5,435.0 706.0,434.5 707.0,434.5 707.5,434.0 708.0,433.5 709.0,433.5 709.5,433.0 710.0,432.5 711.0,432.5 711.5,432.0 712.0,431.5 713.0,431.5 714.0,431.5 714.5,431.0 715.0,430.5 716.0,430.5 716.5,430.0 717.0,429.5 718.0,429.5 719.0,429.5 719.5,429.0 720.0,428.5 721.0,428.5 722.0,428.5 722.5,428.0 723.0,427.5 724.0,427.5 725.0,427.5 726.0,427.5 726.5,427.0 727.0,426.5 728.0,426.5 729.0,426.5 729.5,426.0 730.0,425.5 731.0,425.5 732.0,425.5 732.5,425.0 733.0,424.5 734.0,424.5 735.0,424.5 736.0,424.5 736.5,424.0 737.0,423.5 738.0,423.5 739.0,423.5 740.0,423.5 741.0,423.5 741.5,423.0 742.0,422.5 743.0,422.5 744.0,422.5 745.0,422.5 746.0,422.5 746.5,422.0 747.0,421.5 748.0,421.5 749.0,421.5 750.0,421.5 751.0,421.5 751.5,421.0 752.0,420.5 753.0,420.5 754.0,420.5 755.0,420.5 756.0,420.5 757.0,420.5 758.0,420.5 758.5,420.0 759.0,419.5 760.0,419.5 761.0,419.5 762.0,419.5 763.0,419.5 764.0,419.5 765.0,419.5 765.5,419.0 766.0,418.5 767.0,418.5 768.0,418.5 769.0,418.5 770.0,418.5 771.0,418.5 772.0,418.5 773.0,418.5 774.0,418.5 775.0,418.5 776.0,418.5 776.5,418.0 777.0,417.5 778.0,417.5 779.0,417.5 780.0,417.5 781.0,417.5 782.0,417.5 783.0,417.5 784.0,417.5 785.0,417.5 786.0,417.5 787.0,417.5 787.5,417.0 788.0,416.5 789.0,416.5 790.0,416.5 791.0,416.5 792.0,416.5 793.0,416.5 794.0,416.5 795.0,416.5 796.0,416.5 797.0,416.5 798.0,416.5 799.0,416.5 800.0,416.5 800.5,416.0 801.0,415.5 802.0,415.5 803.0,415.5 804.0,415.5 805.0,415.5 806.0,415.5 807.0,415.5 808.0,415.5 809.0,415.5 810.0,415.5 811.0,415.5 812.0,415.5 813.0,415.5 813.5,415.0 814.0,414.5 815.0,414.5 816.0,414.5 817.0,414.5 818.0,414.5 819.0,414.5 820.0,414.5 821.0,414.5 822.0,414.5 823.0,414.5 824.0,414.5 825.0,414.5 826.0,414.5 827.0,414.5 828.0,414.5 829.0,414.5 829.5,414.0 830.0,413.5 831.0,413.5 832.0,413.5 833.0,413.5 834.0,413.5 835.0,413.5 836.0,413.5 837.0,413.5 838.0,413.5 839.0,413.5 839.5,413.0 840.0,412.5 841.0,412.5 842.0,412.5 843.0,412.5 844.0,412.5 845.0,412.5 846.0,412.5 847.0,412.5 848.0,412.5 848.5,412.0 849.0,411.5 850.0,411.5 851.0,411.5 852.0,411.5 853.0,411.5 854.0,411.5 855.0,411.5 856.0,411.5 856.5,411.0 857.0,410.5 858.0,410.5 859.0,410.5 860.0,410.5 861.0,410.5 862.0,410.5 862.5,410.0 863.0,409.5 864.0,409.5 865.0,409.5 866.0,409.5 867.0,409.5 867.5,409.0 868.0,408.5 869.0,408.5 870.0,408.5 871.0,408.5 872.0,408.5 873.0,408.5 873.5,408.0 874.0,407.5 875.0,407.5 876.0,407.5 877.0,407.5 877.5,407.0 878.0,406.5 879.0,406.5 880.0,406.5 881.0,406.5 881.5,406.0 882.0,405.5 883.0,405.5 884.0,405.5 885.0,405.5 885.5,405.0 886.0,404.5 887.0,404.5 888.0,404.5 888.5,404.0 889.0,403.5 890.0,403.5 891.0,403.5 892.0,403.5 892.5,403.0 893.0,402.5 894.0,402.5 895.0,402.5 895.5,402.0 896.0,401.5 897.0,401.5 898.0,401.5 898.5,401.0 899.0,400.5 900.0,400.5 901.0,400.5 901.5,400.0 902.0,399.5 903.0,399.5 904.0,399.5 904.5,399.0 905.0,398.5 906.0,398.5 906.5,398.0 907.0,397.5 908.0,397.5 908.5,397.0 909.0,396.5 910.0,396.5 910.5,396.0 911.0,395.5 912.0,395.5 913.0,395.5 913.5,395.0 914.0,394.5 915.0,394.5 915.5,394.0 916.0,393.5 917.0,393.5 917.5,393.0 918.0,392.5 918.5,392.0 919.0,391.5 920.0,391.5 920.5,391.0 921.0,390.5 922.0,390.5 922.5,390.0 923.0,389.5 924.0,389.5 924.5,389.0 925.0,388.5 926.0,388.5 926.5,388.0 927.0,387.5 928.0,387.5 928.5,387.0 929.0,386.5 930.0,386.5 930.5,386.0 931.0,385.5 931.5,385.0 932.0,384.5 933.0,384.5 933.5,384.0 934.0,383.5 935.0,383.5 935.5,383.0 936.0,382.5 937.0,382.5 937.5,382.0 938.0,381.5 939.0,381.5 939.5,381.0 940.0,380.5 941.0,380.5 941.5,380.0 942.0,379.5 942.5,379.0 943.0,378.5 944.0,378.5 944.5,378.0 945.0,377.5 946.0,377.5 946.5,377.0 947.0,376.5 948.0,376.5 948.5,376.0 949.0,375.5 950.0,375.5 950.5,375.0 951.0,374.5 952.0,374.5 952.5,374.0 953.0,373.5 954.0,373.5 954.5,373.0 955.0,372.5 956.0,372.5 956.5,372.0 957.0,371.5 958.0,371.5 958.5,371.0 959.0,370.5 960.0,370.5 960.5,370.0 961.0,369.5 962.0,369.5 963.0,369.5 963.5,369.0 964.0,368.5 965.0,368.5 965.5,368.0 966.0,367.5 967.0,367.5 967.5,367.0 968.0,366.5 969.0,366.5 969.5,366.0 970.0,365.5 971.0,365.5 972.0,365.5 972.5,365.0 973.0,364.5 974.0,364.5 974.5,364.0 975.0,363.5 976.0,363.5 977.0,363.5 977.5,363.0 978.0,362.5 979.0,362.5 979.5,362.0 980.0,361.5 981.0,361.5 981.5,361.0 982.0,360.5 983.0,360.5 984.0,360.5 984.5,360.0 985.0,359.5 986.0,359.5 986.5,359.0 987.0,358.5 988.0,358.5 989.0,358.5 989.5,358.0 990.0,357.5 991.0,357.5 992.0,357.5 992.5,357.0 993.0,356.5 994.0,356.5 995.0,356.5 995.5,356.0 996.0,355.5 997.0,355.5 997.5,355.0 998.0,354.5 999.0,354.5 1000.0,354.5 1000.5,354.0 1001.0,353.5 1002.0,353.5 1003.0,353.5 1003.5,353.0 1004.0,352.5 1005.0,352.5 1006.0,352.5 1007.0,352.5 1007.5,352.0 1008.0,351.5 1009.0,351.5 1009.5,351.0 1010.0,350.5 1011.0,350.5 1012.0,350.5 1013.0,350.5 1013.5,350.0 1014.0,349.5 1015.0,349.5 1016.0,349.5 1016.5,349.0 1017.0,348.5 1018.0,348.5 1019.0,348.5 1020.0,348.5 1020.5,348.0 1021.0,347.5 1022.0,347.5 1023.0,347.5 1024.0,347.5 1024.5,347.0 1025.0,346.5 1026.0,346.5 1027.0,346.5 1028.0,346.5 1028.5,346.0 1029.0,345.5 1030.0,345.5 1031.0,345.5 1032.0,345.5 1032.5,345.0 1033.0,344.5 1034.0,344.5 1035.0,344.5 1036.0,344.5 1036.5,344.0 1037.0,343.5 1038.0,343.5 1039.0,343.5 1040.0,343.5 1040.5,343.0 1041.0,342.5 1042.0,342.5 1043.0,342.5 1044.0,342.5 1045.0,342.5 1045.5,342.0 1046.0,341.5 1047.0,341.5 1048.0,341.5 1049.0,341.5 1050.0,341.5 1051.0,341.5 1051.5,341.0 1052.0,340.5 1053.0,340.5 1054.0,340.5 1055.0,340.5 1056.0,340.5 1057.0,340.5 1057.5,340.0 1058.0,339.5 1059.0,339.5 1060.0,339.5 1061.0,339.5 1062.0,339.5 1063.0,339.5 1064.0,339.5 1065.0,339.5 1065.5,339.0 1066.0,338.5 1067.0,338.5 1068.0,338.5 1069.0,338.5 1070.0,338.5 1071.0,338.5 1072.0,338.5 1073.0,338.5 1073.5,338.0 1074.0,337.5 1075.0,337.5 1076.0,337.5 1077.0,337.5 1078.0,337.5 1079.0,337.5 1080.0,337.5 1081.0,337.5 1082.0,337.5 1083.0,337.5 1084.0,337.5 1084.5,337.0 1085.0,336.5 1086.0,336.5 1087.0,336.5 1088.0,336.5 1089.0,336.5 1090.0,336.5 1091.0,336.5 1092.0,336.5 1093.0,336.5 1094.0,336.5 1095.0,336.5 1096.0,336.5 1097.0,336.5 1098.0,336.5 1099.0,336.5 1100.0,336.5 1101.0,336.5 1102.0,336.5 1103.0,336.5 1104.0,336.5 1105.0,336.5 1106.0,336.5 1107.0,336.5 1108.0,336.5 1109.0,336.5 1110.0,336.5 1111.0,336.5 1112.0,336.5 1113.0,336.5 1114.0,336.5 1115.0,336.5 1116.0,336.5 1117.0,336.5 1118.0,336.5 1119.0,336.5 1120.0,336.5 1121.0,336.5 1122.0,336.5 1123.0,336.5 1124.0,336.5 1124.5,337.0 1125.0,337.5 1126.0,337.5 1127.0,337.5 1128.0,337.5 1129.0,337.5 1130.0,337.5 1131.0,337.5 1131.5,338.0 1132.0,338.5 1133.0,338.5 1134.0,338.5 1135.0,338.5 1135.5,339.0 1136.0,339.5 1137.0,339.5 1138.0,339.5 1139.0,339.5 1140.0,339.5 1140.5,340.0 1141.0,340.5 1142.0,340.5 1143.0,340.5 1144.0,340.5 1144.5,341.0 1145.0,341.5 1146.0,341.5 1147.0,341.5 1148.0,341.5 1148.5,342.0 1149.0,342.5 1150.0,342.5 1151.0,342.5 1152.0,342.5 1152.5,343.0 1153.0,343.5 1154.0,343.5 1155.0,343.5 1155.5,344.0 1156.0,344.5 1157.0,344.5 1158.0,344.5 1158.5,345.0 1159.0,345.5 1160.0,345.5 1161.0,345.5 1162.0,345.5 1162.5,346.0 1163.0,346.5 1164.0,346.5 1165.0,346.5 1165.5,347.0 1166.0,347.5 1167.0,347.5 1168.0,347.5 1168.5,348.0 1169.0,348.5 1170.0,348.5 1171.0,348.5 1171.5,349.0 1172.0,349.5 1173.0,349.5 1174.0,349.5 1174.5,350.0 1175.0,350.5 1176.0,350.5 1177.0,350.5 1177.5,351.0 1178.0,351.5 1179.0,351.5 1179.5,352.0 1180.0,352.5 1181.0,352.5 1182.0,352.5 1182.5,353.0 1183.0,353.5 1184.0,353.5 1185.0,353.5 1185.5,354.0 1186.0,354.5 1187.0,354.5 1188.0,354.5 1188.5,355.0 1189.0,355.5 1190.0,355.5 1191.0,355.5 1191.5,356.0 1192.0,356.5 1193.0,356.5 1194.0,356.5 1194.5,357.0 1195.0,357.5 1196.0,357.5 1196.5,358.0 1197.0,358.5 1198.0,358.5 1199.0,358.5 1199.5,359.0 1200.0,359.5 1201.0,359.5 1202.0,359.5 1202.5,360.0 1203.0,360.5 1204.0,360.5 1205.0,360.5 1205.5,361.0 1206.0,361.5 1207.0,361.5 1207.5,362.0 1208.0,362.5 1209.0,362.5 1210.0,362.5 1210.5,363.0 1211.0,363.5 1212.0,363.5 1213.0,363.5 1213.5,364.0 1214.0,364.5 1215.0,364.5 1215.5,365.0 1216.0,365.5 1217.0,365.5 1218.0,365.5 1218.5,366.0 1219.0,366.5 1220.0,366.5 1221.0,366.5 1221.5,367.0 1222.0,367.5 1223.0,367.5 1224.0,367.5 1224.5,368.0 1225.0,368.5 1226.0,368.5 1227.0,368.5 1227.5,369.0 1228.0,369.5 1229.0,369.5 1230.0,369.5 1230.5,370.0 1231.0,370.5 1232.0,370.5 1232.5,371.0 1233.0,371.5 1234.0,371.5 1235.0,371.5 1235.5,372.0 1236.0,372.5 1237.0,372.5 1238.0,372.5 1238.5,373.0 1239.0,373.5 1240.0,373.5 1241.0,373.5 1241.5,374.0 1242.0,374.5 1243.0,374.5 1244.0,374.5 1245.0,374.5 1245.5,375.0 1246.0,375.5 1247.0,375.5 1248.0,375.5 1248.5,376.0 1249.0,376.5 1250.0,376.5 1251.0,376.5 1252.0,376.5 1252.5,377.0 1253.0,377.5 1254.0,377.5 1255.0,377.5 1256.0,377.5 1256.5,378.0 1257.0,378.5 1258.0,378.5 1259.0,378.5 1260.0,378.5 1261.0,378.5 1261.5,379.0 1262.0,379.5 1263.0,379.5 1264.0,379.5 1265.0,379.5 1266.0,379.5 1267.0,379.5 1267.5,380.0 1268.0,380.5 1269.0,380.5 1270.0,380.5 1271.0,380.5 1272.0,380.5 1273.0,380.5 1274.0,380.5 1275.0,380.5 1276.0,380.5 1277.0,380.5 1278.0,380.5 1279.0,380.5 1280.0,380.5 1281.0,380.5 1282.0,380.5 1283.0,380.5 1284.0,380.5 1285.0,380.5 1286.0,380.5 1287.0,380.5 1288.0,380.5 1289.0,380.5 1289.5,380.0 1290.0,379.5 1291.0,379.5 1292.0,379.5 1293.0,379.5 1294.0,379.5 1295.0,379.5 1296.0,379.5 1297.0,379.5 1297.5,379.0 1298.0,378.5 1299.0,378.5 1300.0,378.5 1301.0,378.5 1302.0,378.5 1303.0,378.5 1303.5,378.0 1304.0,377.5 1305.0,377.5 1306.0,377.5 1307.0,377.5 1307.5,377.0 1308.0,376.5 1309.0,376.5 1310.0,376.5 1310.5,376.0 1311.0,375.5 1312.0,375.5 1312.5,375.0 1313.0,374.5 1314.0,374.5 1314.5,374.0 1315.0,373.5 1316.0,373.5 1316.5,373.0 1317.0,372.5 1318.0,372.5 1318.5,372.0 1319.0,371.5 1320.0,371.5 1320.5,371.0 1321.0,370.5 1321.5,370.0 1322.0,369.5 1323.0,369.5 1323.5,369.0 1324.0,368.5 1324.5,368.0 1325.0,367.5 1325.5,367.0 1326.0,366.5 1326.5,366.0 1327.0,365.5 1327.5,365.0 1328.0,364.5 1329.0,364.5 1329.5,364.0 1330.0,363.5 1330.5,363.0 1331.0,362.5 1331.5,362.0 1332.0,361.5 1332.5,361.0 1333.0,360.5 1333.5,360.0 1334.0,359.5 1334.5,359.0 1335.0,358.5 1335.5,358.0 1335.5,357.0 1336.0,356.5 1336.5,356.0 1337.0,355.5 1337.5,355.0 1337.5,354.0 1338.0,353.5 1338.5,353.0 1338.5,352.0 1338.5,351.0 1339.0,350.5 1339.5,350.0 1340.0,349.5 1340.5,349.0 1340.5,348.0 1340.5,347.0 1341.0,346.5 1341.5,346.0 1341.5,345.0 1342.0,344.5 1342.5,344.0 1342.5,343.0 1342.5,342.0 1343.0,341.5 1343.5,341.0 1343.5,340.0 1344.0,339.5 1344.5,339.0 1344.5,338.0 1344.5,337.0 1344.5,336.0 1345.0,335.5 1345.5,335.0 1345.5,334.0 1345.5,333.0 1346.0,332.5 1346.5,332.0 1346.5,331.0 1346.5,330.0 1346.5,329.0 1346.5,328.0 1347.0,327.5 1347.5,327.0 1347.5,326.0 1347.5,325.0 1347.5,324.0 1348.0,323.5 1348.5,323.0 1348.5,322.0 1348.5,321.0 1348.5,320.0 1348.5,319.0 1348.5,318.0 1348.5,317.0 1348.5,316.0 1348.5,315.0 1349.0,314.5 1349.5,314.0 1349.5,313.0 1349.5,312.0 1349.5,311.0 1349.5,310.0 1349.5,309.0 1349.5,308.0 1349.5,307.0 1349.5,306.0 1349.0,305.5 1348.5,305.0 1348.5,304.0 1348.5,303.0 1348.5,302.0 1348.5,301.0 1348.5,300.0 1348.5,299.0 1348.5,298.0 1348.0,297.5 1347.5,297.0 1347.5,296.0 1347.5,295.0 1347.0,294.5 1346.5,294.0 1346.5,293.0 1346.5,292.0 1346.5,291.0 1346.0,290.5 1345.5,290.0 1345.5,289.0 1345.0,288.5 1344.5,288.0 1344.5,287.0 1344.0,286.5 1343.5,286.0 1343.5,285.0 1343.0,284.5 1342.5,284.0 1342.0,283.5 1341.5,283.0 1341.0,282.5 1340.5,282.0 1340.5,281.0 1340.0,280.5 1339.5,280.0 1339.0,279.5 1338.5,279.0 1338.0,278.5 1337.5,278.0 1337.0,277.5 1336.5,277.0 1336.5,276.0 1336.0,275.5 1335.5,275.0 1335.0,274.5 1334.5,274.0 1334.0,273.5 1333.5,273.0 1333.0,272.5 1332.5,272.0 1332.0,271.5 1331.5,271.0 1331.0,270.5 1330.5,270.0 1330.0,269.5 1329.5,269.0 1329.5,268.0 1329.0,267.5 1328.0,267.5 1327.5,267.0 1327.5,266.0 1327.0,265.5 1326.0,265.5 1325.5,265.0 1325.0,264.5 1324.5,264.0 1324.0,263.5 1323.5,263.0 1323.0,262.5 1322.5,262.0 1322.0,261.5 1321.5,261.0 1321.0,260.5 1320.5,260.0 1320.0,259.5 1319.5,259.0 1319.0,258.5 1318.5,258.0 1318.0,257.5 1317.5,257.0 1317.0,256.5 1316.5,256.0 1316.0,255.5 1315.5,255.0 1315.0,254.5 1314.0,254.5 1313.5,254.0 1313.0,253.5 1312.5,253.0 1312.0,252.5 1311.5,252.0 1311.0,251.5 1310.5,251.0 1310.0,250.5 1309.5,250.0 1309.0,249.5 1308.5,249.0 1308.0,248.5 1307.0,248.5 1306.5,248.0 1306.0,247.5 1305.5,247.0 1305.0,246.5 1304.5,246.0 1304.0,245.5 1303.5,245.0 1303.0,244.5 1302.5,244.0 1302.0,243.5 1301.0,243.5 1300.5,243.0 1300.0,242.5 1299.5,242.0 1299.0,241.5 1298.5,241.0 1298.0,240.5 1297.5,240.0 1297.0,239.5 1296.5,239.0 1296.0,238.5 1295.5,238.0 1295.0,237.5 1294.5,237.0 1294.0,236.5 1293.0,236.5 1292.5,236.0 1292.0,235.5 1291.5,235.0 1291.0,234.5 1290.5,234.0 1290.0,233.5 1289.5,233.0 1289.0,232.5 1288.5,232.0 1288.0,231.5 1287.5,231.0 1287.0,230.5 1286.5,230.0 1286.0,229.5 1285.5,229.0 1285.0,228.5 1284.5,228.0 1284.0,227.5 1283.5,227.0 1283.0,226.5 1282.5,226.0 1282.0,225.5 1281.5,225.0 1281.0,224.5 1280.5,224.0 1280.0,223.5 1279.5,223.0 1279.0,222.5 1278.5,222.0 1278.0,221.5 1277.5,221.0 1277.0,220.5 1276.5,220.0 1276.0,219.5 1275.5,219.0 1275.5,218.0 1275.0,217.5 1274.5,217.0 1274.0,216.5 1273.5,216.0 1273.0,215.5 1272.5,215.0 1272.0,214.5 1271.5,214.0 1271.5,213.0 1271.0,212.5 1270.5,212.0 1270.0,211.5 1269.5,211.0 1269.5,210.0 1269.0,209.5 1268.5,209.0 1268.0,208.5 1267.5,208.0 1267.5,207.0 1267.0,206.5 1266.5,206.0 1266.5,205.0 1266.0,204.5 1265.5,204.0 1265.0,203.5 1264.5,203.0 1264.5,202.0 1264.0,201.5 1263.5,201.0 1263.5,200.0 1263.0,199.5 1262.5,199.0 1262.5,198.0 1262.0,197.5 1261.5,197.0 1261.5,196.0 1261.5,195.0 1261.0,194.5 1260.5,194.0 1260.5,193.0 1260.0,192.5 1259.5,192.0 1259.5,191.0 1259.5,190.0 1259.0,189.5 1258.5,189.0 1258.5,188.0 1258.5,187.0 1258.0,186.5 1257.5,186.0 1257.5,185.0 1257.5,184.0 1257.5,183.0 1257.0,182.5 1256.5,182.0 1256.5,181.0 1256.5,180.0 1256.5,179.0 1256.0,178.5 1255.5,178.0 1255.5,177.0 1255.5,176.0 1255.5,175.0 1255.5,174.0 1255.5,173.0 1255.0,172.5 1254.5,172.0 1254.5,171.0 1254.5,170.0 1254.5,169.0 1254.5,168.0 1254.5,167.0 1254.5,166.0 1254.5,165.0 1254.5,164.0 1254.5,163.0 1254.5,162.0 1254.5,161.0 1254.5,160.0 1254.5,159.0 1254.5,158.0 1254.5,157.0 1254.5,156.0 1254.5,155.0 1254.5,154.0 1254.5,153.0 1254.5,152.0 1254.5,151.0 1255.0,150.5 1255.5,150.0 1255.5,149.0 1255.5,148.0 1255.5,147.0 1255.5,146.0 1256.0,145.5 1256.5,145.0 1256.5,144.0 1256.5,143.0 1257.0,142.5 1257.5,142.0 1257.5,141.0 1257.5,140.0 1257.5,139.0 1258.0,138.5 1258.5,138.0 1258.5,137.0 1259.0,136.5 1259.5,136.0 1259.5,135.0 1259.5,134.0 1260.0,133.5 1260.5,133.0 1260.5,132.0 1261.0,131.5 1261.5,131.0 1261.5,130.0 1262.0,129.5 1262.5,129.0 1262.5,128.0 1263.0,127.5 1263.5,127.0 1264.0,126.5 1264.5,126.0 1264.5,125.0 1265.0,124.5 1265.5,124.0 1266.0,123.5 1266.5,123.0 1266.5,122.0 1267.0,121.5 1267.5,121.0 1268.0,120.5 1268.5,120.0 1269.0,119.5 1269.5,119.0 1270.0,118.5 1270.5,118.0 1271.0,117.5 1272.0,117.5 1272.5,117.0 1273.0,116.5 1273.5,116.0 1274.0,115.5 1275.0,115.5 1275.5,115.0 1276.0,114.5 1277.0,114.5 1277.5,114.0 1278.0,113.5 1279.0,113.5 1279.5,113.0 1280.0,112.5 1281.0,112.5 1282.0,112.5 1282.5,112.0 1283.0,111.5 1284.0,111.5 1285.0,111.5 1286.0,111.5 1287.0,111.5 1287.5,111.0 1288.0,110.5 1289.0,110.5 1290.0,110.5 1291.0,110.5 1292.0,110.5 1293.0,110.5 1294.0,110.5 1295.0,110.5 1296.0,110.5 1297.0,110.5 1298.0,110.5 1299.0,110.5 1300.0,110.5 1300.5,111.0 1301.0,111.5 1302.0,111.5 1303.0,111.5 1304.0,111.5 1305.0,111.5 1306.0,111.5 1306.5,112.0 1307.0,112.5 1308.0,112.5 1309.0,112.5 1309.5,113.0 1310.0,113.5 1311.0,113.5 1312.0,113.5 1312.5,114.0 1313.0,114.5 1314.0,114.5 1314.5,115.0 1315.0,115.5 1316.0,115.5 1316.5,116.0 1317.0,116.5 1317.5,117.0 1318.0,117.5 1319.0,117.5 1319.5,118.0 1320.0,118.5 1321.0,118.5 1321.5,119.0 1322.0,119.5 1322.5,120.0 1323.0,120.5 1324.0,120.5 1324.5,121.0 1325.0,121.5 1325.5,122.0 1326.0,122.5 1326.5,123.0 1327.0,123.5 1327.5,124.0 1328.0,124.5 1329.0,124.5 1329.5,125.0 1330.0,125.5 1330.5,126.0 1331.0,126.5 1331.5,127.0 1332.0,127.5 1332.5,128.0 1333.0,128.5 1334.0,128.5 1334.5,129.0 1335.0,129.5 1335.5,130.0 1336.0,130.5 1336.5,131.0 1337.0,131.5 1337.5,132.0 1338.0,132.5 1338.5,133.0 1339.0,133.5 1340.0,133.5 1340.5,134.0 1341.0,134.5 1341.5,135.0 1342.0,135.5 1343.0,135.5 1343.5,136.0 1344.0,136.5 1344.5,137.0 1345.0,137.5 1346.0,137.5 1346.5,138.0 1347.0,138.5 1348.0,138.5 1348.5,139.0 1349.0,139.5 1350.0,139.5 1351.0,139.5 1351.5,140.0 1352.0,140.5 1353.0,140.5 1353.5,141.0 1354.0,141.5 1355.0,141.5 1356.0,141.5 1357.0,141.5 1357.5,142.0 1358.0,142.5 1359.0,142.5 1360.0,142.5 1360.5,143.0 1361.0,143.5 1362.0,143.5 1363.0,143.5 1364.0,143.5 1364.5,144.0 1365.0,144.5 1366.0,144.5 1367.0,144.5 1368.0,144.5 1368.5,145.0 1369.0,145.5 1370.0,145.5 1371.0,145.5 1371.5,146.0 1372.0,146.5 1373.0,146.5 1373.5,147.0 1374.0,147.5 1374.5,148.0 1375.0,148.5 1376.0,148.5 1376.5,149.0 1377.0,149.5 1377.5,150.0 1378.0,150.5 1378.5,151.0 1379.0,151.5 1379.5,152.0 1380.0,152.5 1380.5,153.0 1380.5,154.0 1381.0,154.5 1381.5,155.0 1381.5,156.0 1382.0,156.5 1382.5,157.0 1382.5,158.0 1382.0,158.5 1381.5,159.0 1381.5,160.0 1381.0,160.5 1380.0,160.5 1379.5,161.0 1379.0,161.5 1378.5,162.0 1378.0,162.5 1377.0,162.5 1376.5,163.0 1376.0,163.5 1375.0,163.5 1374.0,163.5 1373.5,164.0 1373.0,164.5 1372.0,164.5 1371.0,164.5 1370.0,164.5 1369.0,164.5 1368.5,165.0 1368.0,165.5 1367.0,165.5 1366.0,165.5 1365.0,165.5 1364.0,165.5 1363.0,165.5 1362.0,165.5 1361.0,165.5 1360.0,165.5 1359.0,165.5 1358.0,165.5 1357.0,165.5 1356.0,165.5 1355.0,165.5 1354.0,165.5 1353.0,165.5 1352.0,165.5 1351.0,165.5 1350.0,165.5 1349.5,165.0 1349.0,164.5 1348.0,164.5 1347.0,164.5 1346.0,164.5 1345.0,164.5 1344.0,164.5 1343.0,164.5 1342.0,164.5 1341.0,164.5 1340.5,165.0 1340.0,165.5 1339.0,165.5 1338.0,165.5 1337.0,165.5 1336.0,165.5 1335.0,165.5 1334.0,165.5 1333.0,165.5 1332.0,165.5 1331.0,165.5 1330.0,165.5 1329.0,165.5 1328.0,165.5 1327.0,165.5 1326.0,165.5 1325.0,165.5 1324.5,166.0 1324.0,166.5 1323.0,166.5 1322.0,166.5 1321.0,166.5 1320.0,166.5 1319.0,166.5 1318.5,167.0 1318.0,167.5 1317.0,167.5 1316.0,167.5 1315.0,167.5 1314.0,167.5 1313.5,168.0 1313.0,168.5 1312.0,168.5 1311.0,168.5 1310.5,169.0 1310.0,169.5 1309.0,169.5 1308.5,170.0 1308.0,170.5 1307.0,170.5 1306.5,171.0 1306.0,171.5 1305.5,172.0 1305.0,172.5 1304.5,173.0 1304.0,173.5 1303.5,174.0 1303.0,174.5 1302.5,175.0 1302.0,175.5 1301.5,176.0 1301.5,177.0 1301.0,177.5 1300.5,178.0 1300.5,179.0 1300.0,179.5 1299.5,180.0 1299.5,181.0 1299.5,182.0 1299.5,183.0 1299.5,184.0 1299.5,185.0 1299.5,186.0 1299.5,187.0 1299.5,188.0 1299.5,189.0 1299.5,190.0 1299.5,191.0 1299.5,192.0 1300.0,192.5 1300.5,193.0 1300.5,194.0 1301.0,194.5 1301.5,195.0 1301.5,196.0 1302.0,196.5 1302.5,197.0 1303.0,197.5 1303.5,198.0 1303.5,199.0 1304.0,199.5 1304.5,200.0 1305.0,200.5 1305.5,201.0 1306.0,201.5 1306.5,202.0 1307.0,202.5 1307.5,203.0 1308.0,203.5 1308.5,204.0 1309.0,204.5 1309.5,205.0 1310.0,205.5 1310.5,206.0 1310.5,207.0 1311.0,207.5 1312.0,207.5 1312.5,208.0 1313.0,208.5 1313.5,209.0 1314.0,209.5 1314.5,210.0 1315.0,210.5 1315.5,211.0 1316.0,211.5 1316.5,212.0 1317.0,212.5 1317.5,213.0 1318.0,213.5 1318.5,214.0 1319.0,214.5 1319.5,215.0 1320.0,215.5 1321.0,215.5 1321.5,216.0 1322.0,216.5 1322.5,217.0 1323.0,217.5 1323.5,218.0 1324.0,218.5 1324.5,219.0 1325.0,219.5 1325.5,220.0 1326.0,220.5 1327.0,220.5 1327.5,221.0 1328.0,221.5 1328.5,222.0 1329.0,222.5 1329.5,223.0 1330.0,223.5 1330.5,224.0 1331.0,224.5 1332.0,224.5 1332.5,225.0 1333.0,225.5 1333.5,226.0 1334.0,226.5 1334.5,227.0 1335.0,227.5 1335.5,228.0 1336.0,228.5 1337.0,228.5 1337.5,229.0 1338.0,229.5 1338.5,230.0 1339.0,230.5 1339.5,231.0 1340.0,231.5 1340.5,232.0 1341.0,232.5 1342.0,232.5 1342.5,233.0 1343.0,233.5 1343.5,234.0 1344.0,234.5 1344.5,235.0 1345.0,235.5 1345.5,236.0 1346.0,236.5 1346.5,237.0 1347.0,237.5 1348.0,237.5 1348.5,238.0 1349.0,238.5 1349.5,239.0 1350.0,239.5 1350.5,240.0 1351.0,240.5 1351.5,241.0 1352.0,241.5 1352.5,242.0 1353.0,242.5 1353.5,243.0 1354.0,243.5 1354.5,244.0 1355.0,244.5 1355.5,245.0 1356.0,245.5 1356.5,246.0 1357.0,246.5 1357.5,247.0 1358.0,247.5 1358.5,248.0 1359.0,248.5 1359.5,249.0 1360.0,249.5 1360.5,250.0 1360.5,251.0 1361.0,251.5 1361.5,252.0 1362.0,252.5 1362.5,253.0 1363.0,253.5 1363.5,254.0 1364.0,254.5 1364.5,255.0 1365.0,255.5 1365.5,256.0 1365.5,257.0 1366.0,257.5 1366.5,258.0 1367.0,258.5 1367.5,259.0 1367.5,260.0 1368.0,260.5 1368.5,261.0 1369.0,261.5 1369.5,262.0 1369.5,263.0 1370.0,263.5 1370.5,264.0 1370.5,265.0 1371.0,265.5 1371.5,266.0 1371.5,267.0 1372.0,267.5 1372.5,268.0 1372.5,269.0 1373.0,269.5 1373.5,270.0 1374.0,270.5 1374.5,271.0 1374.5,272.0 1374.5,273.0 1375.0,273.5 1375.5,274.0 1375.5,275.0 1376.0,275.5 1376.5,276.0 1376.5,277.0 1376.5,278.0 1377.0,278.5 1377.5,279.0 1377.5,280.0 1378.0,280.5 1378.5,281.0 1378.5,282.0 1378.5,283.0 1379.0,283.5 1379.5,284.0 1379.5,285.0 1379.5,286.0 1379.5,287.0 1380.0,287.5 1380.5,288.0 1380.5,289.0 1380.5,290.0 1380.5,291.0 1381.0,291.5 1381.5,292.0 1381.5,293.0 1381.5,294.0 1381.5,295.0 1381.5,296.0 1382.0,296.5 1382.5,297.0 1382.5,298.0 1382.5,299.0 1382.5,300.0 1382.5,301.0 1382.5,302.0 1382.5,303.0 1383.0,303.5 1383.5,304.0 1383.5,305.0 1383.5,306.0 1383.5,307.0 1383.5,308.0 1383.5,309.0 1383.5,310.0 1383.5,311.0 1383.5,312.0 1383.5,313.0 1383.5,314.0 1383.5,315.0 1383.5,316.0 1383.5,317.0 1383.5,318.0 1383.5,319.0 1383.5,320.0 1383.5,321.0 1383.5,322.0 1383.5,323.0 1383.5,324.0 1383.5,325.0 1383.5,326.0 1383.5,327.0 1383.5,328.0 1383.0,328.5 1382.5,329.0 1382.5,330.0 1382.5,331.0 1382.5,332.0 1382.5,333.0 1382.5,334.0 1382.5,335.0 1382.5,336.0 1382.0,336.5 1381.5,337.0 1381.5,338.0 1381.5,339.0 1381.5,340.0 1381.0,340.5 1380.5,341.0 1380.5,342.0 1380.5,343.0 1380.5,344.0 1380.5,345.0 1380.0,345.5 1379.5,346.0 1379.5,347.0 1379.5,348.0 1379.0,348.5 1378.5,349.0 1378.5,350.0 1378.5,351.0 1378.5,352.0 1378.0,352.5 1377.5,353.0 1377.5,354.0 1377.5,355.0 1377.0,355.5 1376.5,356.0 1376.5,357.0 1376.5,358.0 1376.0,358.5 1375.5,359.0 1375.5,360.0 1375.0,360.5 1374.5,361.0 1374.5,362.0 1374.5,363.0 1374.0,363.5 1373.5,364.0 1373.5,365.0 1373.0,365.5 1372.5,366.0 1372.5,367.0 1372.0,367.5 1371.5,368.0 1371.5,369.0 1371.0,369.5 1370.5,370.0 1370.5,371.0 1370.0,371.5 1369.5,372.0 1369.5,373.0 1369.0,373.5 1368.5,374.0 1368.5,375.0 1368.0,375.5 1367.5,376.0 1367.5,377.0 1367.0,377.5 1366.5,378.0 1366.0,378.5 1365.5,379.0 1365.5,380.0 1365.0,380.5 1364.5,381.0 1364.5,382.0 1364.0,382.5 1363.5,383.0 1363.5,384.0 1363.0,384.5 1362.5,385.0 1362.0,385.5 1361.5,386.0 1361.5,387.0 1361.0,387.5 1360.5,388.0 1360.0,388.5 1359.5,389.0 1359.5,390.0 1359.0,390.5 1358.5,391.0 1358.0,391.5 1357.5,392.0 1357.5,393.0 1357.0,393.5 1356.5,394.0 1356.0,394.5 1355.5,395.0 1355.0,395.5 1354.5,396.0 1354.5,397.0 1354.0,397.5 1353.5,398.0 1353.0,398.5 1352.5,399.0 1352.0,399.5 1351.5,400.0 1351.0,400.5 1350.5,401.0 1350.5,402.0 1350.0,402.5 1349.5,403.0 1349.0,403.5 1348.5,404.0 1348.0,404.5 1347.5,405.0 1347.0,405.5 1346.5,406.0 1346.0,406.5 1345.5,407.0 1345.0,407.5 1344.5,408.0 1344.0,408.5 1343.5,409.0 1343.0,409.5 1342.5,410.0 1342.5,411.0 1342.0,411.5 1341.5,412.0 1341.0,412.5 1340.5,413.0 1340.0,413.5 1339.5,414.0 1339.0,414.5 1338.0,414.5 1337.5,415.0 1337.0,415.5 1336.5,416.0 1336.0,416.5 1335.5,417.0 1335.0,417.5 1334.5,418.0 1334.0,418.5 1333.5,419.0 1333.0,419.5 1332.5,420.0 1332.0,420.5 1331.5,421.0 1331.0,421.5 1330.5,422.0 1330.0,422.5 1329.5,423.0 1329.0,423.5 1328.5,424.0 1328.0,424.5 1327.5,425.0 1327.0,425.5 1326.0,425.5 1325.5,426.0 1325.0,426.5 1324.5,427.0 1324.0,427.5 1323.5,428.0 1323.0,428.5 1322.5,429.0 1322.0,429.5 1321.5,430.0 1321.0,430.5 1320.0,430.5 1319.5,431.0 1319.0,431.5 1318.5,432.0 1318.0,432.5 1317.5,433.0 1317.0,433.5 1316.5,434.0 1316.0,434.5 1315.0,434.5 1314.5,435.0 1314.0,435.5 1313.5,436.0 1313.0,436.5 1312.0,436.5 1311.5,437.0 1311.0,437.5 1310.5,438.0 1310.0,438.5 1309.5,439.0 1309.0,439.5 1308.0,439.5 1307.5,440.0 1307.0,440.5 1306.5,441.0 1306.0,441.5 1305.5,442.0 1305.0,442.5 1304.0,442.5 1303.5,443.0 1303.0,443.5 1302.5,444.0 1302.0,444.5 1301.0,444.5 1300.5,445.0 1300.0,445.5 1299.5,446.0 1299.0,446.5 1298.0,446.5 1297.5,447.0 1297.0,447.5 1296.5,448.0 1296.0,448.5 1295.0,448.5 1294.5,449.0 1294.0,449.5 1293.5,450.0 1293.0,450.5 1292.0,450.5 1291.5,451.0 1291.0,451.5 1290.0,451.5 1289.5,452.0 1289.0,452.5 1288.5,453.0 1288.0,453.5 1287.0,453.5 1286.5,454.0 1286.0,454.5 1285.0,454.5 1284.5,455.0 1284.0,455.5 1283.0,455.5 1282.5,456.0 1282.0,456.5 1281.5,457.0 1281.0,457.5 1280.0,457.5 1279.5,458.0 1279.0,458.5 1278.5,459.0 1278.0,459.5 1277.0,459.5 1276.5,460.0 1276.0,460.5 1275.5,461.0 1275.0,461.5 1274.5,462.0 1274.5,463.0 1274.0,463.5 1273.5,464.0 1273.0,464.5 1272.5,465.0 1272.0,465.5 1271.5,466.0 1271.5,467.0 1271.5,468.0 1271.0,468.5 1270.5,469.0 1270.5,470.0 1270.5,471.0 1270.5,472.0 1270.0,472.5 1269.5,473.0 1269.5,474.0 1269.5,475.0 1269.5,476.0 1269.5,477.0 1269.5,478.0 1269.5,479.0 1269.5,480.0 1269.5,481.0 1269.5,482.0 1269.5,483.0 1269.5,484.0 1269.5,485.0 1269.5,486.0 1269.5,487.0 1269.5,488.0 1269.5,489.0 1269.5,490.0 1269.5,491.0 1269.5,492.0 1269.5,493.0 1269.5,494.0 1269.0,494.5 1268.5,495.0 1268.5,496.0 1268.5,497.0 1268.5,498.0 1268.5,499.0 1268.5,500.0 1268.5,501.0 1268.5,502.0 1268.0,502.5 1267.5,503.0 1267.5,504.0 1267.5,505.0 1267.5,506.0 1267.5,507.0 1267.5,508.0 1267.5,509.0 1267.0,509.5 1266.5,510.0 1266.5,511.0 1266.5,512.0 1266.5,513.0 1266.0,513.5 1265.5,514.0 1265.5,515.0 1265.5,516.0 1265.5,517.0 1265.5,518.0 1265.0,518.5 1264.5,519.0 1264.5,520.0 1264.5,521.0 1264.5,522.0 1264.0,522.5 1263.5,523.0 1263.5,524.0 1263.5,525.0 1263.0,525.5 1262.5,526.0 1262.5,527.0 1262.5,528.0 1262.0,528.5 1261.5,529.0 1261.5,530.0 1261.5,531.0 1261.0,531.5 1260.5,532.0 1260.5,533.0 1260.5,534.0 1260.0,534.5 1259.5,535.0 1259.5,536.0 1259.0,536.5 1258.5,537.0 1258.5,538.0 1258.5,539.0 1258.0,539.5 1257.5,540.0 1257.5,541.0 1257.0,541.5 1256.5,542.0 1256.5,543.0 1256.0,543.5 1255.5,544.0 1255.0,544.5 1254.5,545.0 1254.5,546.0 1254.0,546.5 1253.5,547.0 1253.5,548.0 1253.0,548.5 1252.5,549.0 1252.5,550.0 1252.0,550.5 1251.5,551.0 1251.0,551.5 1250.5,552.0 1250.5,553.0 1250.0,553.5 1249.5,554.0 1249.0,554.5 1248.5,555.0 1248.5,556.0 1248.0,556.5 1247.5,557.0 1247.0,557.5 1246.5,558.0 1246.0,558.5 1245.5,559.0 1245.0,559.5 1244.5,560.0 1244.0,560.5 1243.5,561.0 1243.0,561.5 1242.5,562.0 1242.5,563.0 1242.0,563.5 1241.5,564.0 1241.0,564.5 1240.5,565.0 1240.0,565.5 1239.0,565.5 1238.5,566.0 1238.0,566.5 1237.5,567.0 1237.0,567.5 1236.5,568.0 1236.0,568.5 1235.5,569.0 1235.0,569.5 1234.5,570.0 1234.0,570.5 1233.0,570.5 1232.5,571.0 1232.0,571.5 1231.0,571.5 1230.5,572.0 1230.0,572.5 1229.0,572.5 1228.5,573.0 1228.0,573.5 1227.0,573.5 1226.5,574.0 1226.0,574.5 1225.0,574.5 1224.5,575.0 1224.0,575.5 1223.0,575.5 1222.5,576.0 1222.0,576.5 1221.0,576.5 1220.5,577.0 1220.0,577.5 1219.0,577.5 1218.0,577.5 1217.5,578.0 1217.0,578.5 1216.0,578.5 1215.0,578.5 1214.5,579.0 1214.0,579.5 1213.0,579.5 1212.0,579.5 1211.5,580.0 1211.0,580.5 1210.0,580.5 1209.0,580.5 1208.5,581.0 1208.0,581.5 1207.0,581.5 1206.0,581.5 1205.5,582.0 1205.0,582.5 1204.0,582.5 1203.0,582.5 1202.5,583.0 1202.0,583.5 1201.0,583.5 1200.0,583.5 1199.5,584.0 1199.0,584.5 1198.0,584.5 1197.0,584.5 1196.5,585.0 1196.0,585.5 1195.0,585.5 1194.0,585.5 1193.0,585.5 1192.5,586.0 1192.0,586.5 1191.0,586.5 1190.0,586.5 1189.5,587.0 1189.0,587.5 1188.0,587.5 1187.0,587.5 1186.0,587.5 1185.5,588.0 1185.0,588.5 1184.0,588.5 1183.0,588.5 1182.0,588.5 1181.5,589.0 1181.0,589.5 1180.0,589.5 1179.0,589.5 1178.0,589.5 1177.5,590.0 1177.0,590.5 1176.0,590.5 1175.0,590.5 1174.5,591.0 1174.0,591.5 1173.0,591.5 1172.0,591.5 1171.0,591.5 1170.5,592.0 1170.0,592.5 1169.0,592.5 1168.0,592.5 1167.0,592.5 1166.5,593.0 1166.0,593.5 1165.0,593.5 1164.0,593.5 1163.0,593.5 1162.5,594.0 1162.0,594.5 1161.0,594.5 1160.0,594.5 1159.0,594.5 1158.5,595.0 1158.0,595.5 1157.0,595.5 1156.0,595.5 1155.0,595.5 1154.0,595.5 1153.5,596.0 1153.0,596.5 1152.0,596.5 1151.0,596.5 1150.0,596.5 1149.5,597.0 1149.0,597.5 1148.0,597.5 1147.0,597.5 1146.0,597.5 1145.0,597.5 1144.5,598.0 1144.0,598.5 1143.0,598.5 1142.0,598.5 1141.0,598.5 1140.0,598.5 1139.5,599.0 1139.0,599.5 1138.0,599.5 1137.0,599.5 1136.0,599.5 1135.0,599.5 1134.5,600.0 1134.0,600.5 1133.0,600.5 1132.0,600.5 1131.0,600.5 1130.0,600.5 1129.5,601.0 1129.0,601.5 1128.0,601.5 1127.0,601.5 1126.0,601.5 1125.0,601.5 1124.5,602.0 1124.0,602.5 1123.0,602.5 1122.0,602.5 1121.0,602.5 1120.0,602.5 1119.5,603.0 1119.0,603.5 1118.0,603.5 1117.0,603.5 1116.0,603.5 1115.0,603.5 1114.5,604.0 1114.0,604.5 1113.0,604.5 1112.0,604.5 1111.0,604.5 1110.0,604.5 1109.5,605.0 1109.0,605.5 1108.0,605.5 1107.0,605.5 1106.5,606.0 1106.0,606.5 1105.0,606.5 1104.0,606.5 1103.5,607.0 1103.0,607.5 1102.0,607.5 1101.5,608.0 1101.0,608.5 1100.0,608.5 1099.5,609.0 1099.0,609.5 1098.0,609.5 1097.5,610.0 1097.0,610.5 1096.5,611.0 1096.0,611.5 1095.0,611.5 1094.5,612.0 1094.0,612.5 1093.5,613.0 1093.0,613.5 1092.0,613.5 1091.5,614.0 1091.0,614.5 1090.5,615.0 1090.0,615.5 1089.0,615.5 1088.5,616.0 1088.0,616.5 1087.0,616.5 1086.5,617.0 1086.0,617.5 1085.5,618.0 1085.0,618.5 1084.5,619.0 1084.0,619.5 1083.5,620.0 1083.0,620.5 1082.5,621.0 1082.0,621.5 1081.5,622.0 1081.0,622.5 1080.5,623.0 1080.0,623.5 1079.5,624.0 1079.0,624.5 1078.5,625.0 1078.0,625.5 1077.5,626.0 1077.0,626.5 1076.5,627.0 1076.0,627.5 1075.5,628.0 1075.5,629.0 1075.0,629.5 1074.5,630.0 1074.0,630.5 1073.5,631.0 1073.0,631.5 1072.5,632.0 1072.0,632.5 1071.5,633.0 1071.0,633.5 1070.5,634.0 1070.0,634.5 1069.5,635.0 1069.5,636.0 1069.0,636.5 1068.5,637.0 1068.0,637.5 1067.5,638.0 1067.0,638.5 1066.5,639.0 1066.0,639.5 1065.5,640.0 1065.5,641.0 1065.0,641.5 1064.5,642.0 1064.0,642.5 1063.5,643.0 1063.0,643.5 1062.5,644.0 1062.0,644.5 1061.5,645.0 1061.5,646.0 1061.0,646.5 1060.5,647.0 1060.0,647.5 1059.5,648.0 1059.0,648.5 1058.5,649.0 1058.5,650.0 1058.0,650.5 1057.5,651.0 1057.0,651.5 1056.5,652.0 1056.0,652.5 1055.5,653.0 1055.0,653.5 1054.5,654.0 1054.5,655.0 1054.0,655.5 1053.5,656.0 1053.0,656.5 1052.5,657.0 1052.5,658.0 1052.0,658.5 1051.5,659.0 1051.0,659.5 1050.5,660.0 1050.0,660.5 1049.5,661.0 1049.5,662.0 1049.0,662.5 1048.5,663.0 1048.0,663.5 1047.5,664.0 1047.0,664.5 1046.5,665.0 1046.5,666.0 1046.0,666.5 1045.5,667.0 1045.0,667.5 1044.5,668.0 1044.0,668.5 1043.5,669.0 1043.5,670.0 1043.0,670.5 1042.5,671.0 1042.0,671.5 1041.5,672.0 1041.5,673.0 1041.0,673.5 1040.5,674.0 1040.0,674.5 1039.5,675.0 1039.0,675.5 1038.5,676.0 1038.5,677.0 1038.0,677.5 1037.5,678.0 1037.0,678.5 1036.5,679.0 1036.5,680.0 1036.0,680.5 1035.5,681.0 1035.0,681.5 1034.5,682.0 1034.5,683.0 1034.0,683.5 1033.5,684.0 1033.0,684.5 1032.5,685.0 1032.0,685.5 1031.5,686.0 1031.5,687.0 1031.0,687.5 1030.5,688.0 1030.0,688.5 1029.5,689.0 1029.5,690.0 1029.0,690.5 1028.5,691.0 1028.5,692.0 1028.0,692.5 1027.5,693.0 1027.0,693.5 1026.5,694.0 1026.5,695.0 1026.0,695.5 1025.5,696.0 1026.0,696.5 1027.0,696.5 1028.0,696.5 1028.5,696.0 1029.0,695.5 1030.0,695.5 1031.0,695.5 1031.5,695.0 1032.0,694.5 1033.0,694.5 1034.0,694.5 1035.0,694.5 1035.5,694.0 1036.0,693.5 1037.0,693.5 1038.0,693.5 1038.5,693.0 1039.0,692.5 1040.0,692.5 1041.0,692.5 1041.5,692.0 1042.0,691.5 1043.0,691.5 1044.0,691.5 1045.0,691.5 1045.5,691.0 1046.0,690.5 1047.0,690.5 1047.5,690.0 1048.0,689.5 1049.0,689.5 1050.0,689.5 1051.0,689.5 1051.5,689.0 1052.0,688.5 1053.0,688.5 1054.0,688.5 1054.5,688.0 1055.0,687.5 1056.0,687.5 1057.0,687.5 1058.0,687.5 1058.5,687.0 1059.0,686.5 1060.0,686.5 1060.5,686.0 1061.0,685.5 1062.0,685.5 1063.0,685.5 1064.0,685.5 1064.5,685.0 1065.0,684.5 1066.0,684.5 1067.0,684.5 1067.5,684.0 1068.0,683.5 1069.0,683.5 1070.0,683.5 1071.0,683.5 1071.5,683.0 1072.0,682.5 1073.0,682.5 1074.0,682.5 1074.5,682.0 1075.0,681.5 1076.0,681.5 1077.0,681.5 1077.5,681.0 1078.0,680.5 1079.0,680.5 1080.0,680.5 1080.5,680.0 1081.0,679.5 1082.0,679.5 1083.0,679.5 1083.5,679.0 1084.0,678.5 1085.0,678.5 1086.0,678.5 1087.0,678.5 1087.5,678.0 1088.0,677.5 1089.0,677.5 1090.0,677.5 1090.5,677.0 1091.0,676.5 1092.0,676.5 1093.0,676.5 1093.5,676.0 1094.0,675.5 1095.0,675.5 1096.0,675.5 1096.5,675.0 1097.0,674.5 1098.0,674.5 1099.0,674.5 1100.0,674.5 1100.5,674.0 1101.0,673.5 1102.0,673.5 1103.0,673.5 1103.5,673.0 1104.0,672.5 1105.0,672.5 1106.0,672.5 1107.0,672.5 1107.5,672.0 1108.0,671.5 1109.0,671.5 1110.0,671.5 1110.5,671.0 1111.0,670.5 1112.0,670.5 1113.0,670.5 1113.5,670.0 1114.0,669.5 1115.0,669.5 1116.0,669.5 1116.5,669.0 1117.0,668.5 1118.0,668.5 1119.0,668.5 1120.0,668.5 1120.5,668.0 1121.0,667.5 1122.0,667.5 1123.0,667.5 1123.5,667.0 1124.0,666.5 1125.0,666.5 1126.0,666.5 1126.5,666.0 1127.0,665.5 1128.0,665.5 1129.0,665.5 1129.5,665.0 1130.0,664.5 1131.0,664.5 1132.0,664.5 1133.0,664.5 1133.5,664.0 1134.0,663.5 1135.0,663.5 1136.0,663.5 1136.5,663.0 1137.0,662.5 1138.0,662.5 1139.0,662.5 1139.5,662.0 1140.0,661.5 1141.0,661.5 1142.0,661.5 1143.0,661.5 1143.5,661.0 1144.0,660.5 1145.0,660.5 1146.0,660.5 1146.5,660.0 1147.0,659.5 1148.0,659.5 1149.0,659.5 1150.0,659.5 1150.5,659.0 1151.0,658.5 1152.0,658.5 1153.0,658.5 1153.5,658.0 1154.0,657.5 1155.0,657.5 1156.0,657.5 1156.5,657.0 1157.0,656.5 1158.0,656.5 1159.0,656.5 1160.0,656.5 1160.5,656.0 1161.0,655.5 1162.0,655.5 1163.0,655.5 1164.0,655.5 1164.5,655.0 1165.0,654.5 1166.0,654.5 1167.0,654.5 1167.5,654.0 1168.0,653.5 1169.0,653.5 1170.0,653.5 1171.0,653.5 1172.0,653.5 1173.0,653.5 1174.0,653.5 1175.0,653.5 1176.0,653.5 1177.0,653.5 1178.0,653.5 1179.0,653.5 1180.0,653.5 1180.5,654.0 1181.0,654.5 1182.0,654.5 1183.0,654.5 1184.0,654.5 1184.5,655.0 1185.0,655.5 1186.0,655.5 1187.0,655.5 1188.0,655.5 1188.5,656.0 1189.0,656.5 1190.0,656.5 1190.5,657.0 1191.0,657.5 1192.0,657.5 1192.5,658.0 1193.0,658.5 1193.5,659.0 1194.0,659.5 1195.0,659.5 1195.5,660.0 1196.0,660.5 1196.5,661.0 1197.0,661.5 1197.5,662.0 1198.0,662.5 1198.5,663.0 1199.0,663.5 1199.5,664.0 1200.0,664.5 1200.5,665.0 1201.0,665.5 1201.5,666.0 1201.5,667.0 1202.0,667.5 1202.5,668.0 1203.0,668.5 1203.5,669.0 1204.0,669.5 1204.5,670.0 1204.5,671.0 1205.0,671.5 1205.5,672.0 1206.0,672.5 1206.5,673.0 1206.5,674.0 1207.0,674.5 1207.5,675.0 1208.0,675.5 1208.5,676.0 1208.5,677.0 1209.0,677.5 1209.5,678.0 1210.0,678.5 1210.5,679.0 1210.5,680.0 1211.0,680.5 1211.5,681.0 1212.0,681.5 1212.5,682.0 1212.5,683.0 1213.0,683.5 1213.5,684.0 1214.0,684.5 1214.5,685.0 1214.5,686.0 1215.0,686.5 1215.5,687.0 1216.0,687.5 1216.5,688.0 1216.5,689.0 1217.0,689.5 1217.5,690.0 1218.0,690.5 1218.5,691.0 1218.5,692.0 1219.0,692.5 1219.5,693.0 1220.0,693.5 1220.5,694.0 1220.5,695.0 1221.0,695.5 1221.5,696.0 1221.5,697.0 1222.0,697.5 1222.5,698.0 1223.0,698.5 1223.5,699.0 1223.5,700.0 1224.0,700.5 1224.5,701.0 1225.0,701.5 1225.5,702.0 1225.5,703.0 1226.0,703.5 1226.5,704.0 1227.0,704.5 1227.5,705.0 1227.5,706.0 1228.0,706.5 1228.5,707.0 1229.0,707.5 1229.5,708.0 1229.5,709.0 1230.0,709.5 1230.5,710.0 1230.5,711.0 1231.0,711.5 1231.5,712.0 1232.0,712.5 1232.5,713.0 1232.5,714.0 1233.0,714.5 1233.5,715.0 1234.0,715.5 1234.5,716.0 1234.5,717.0 1235.0,717.5 1235.5,718.0 1236.0,718.5 1236.5,719.0 1236.5,720.0 1237.0,720.5 1237.5,721.0 1237.5,722.0 1238.0,722.5 1238.5,723.0 1238.5,724.0 1238.5,725.0 1238.5,726.0 1238.5,727.0 1238.5,728.0 1238.5,729.0 1238.5,730.0 1238.5,731.0 1238.5,732.0 1238.0,732.5 1237.5,733.0 1237.5,734.0 1237.0,734.5 1236.5,735.0 1236.0,735.5 1235.5,736.0 1235.0,736.5 1234.0,736.5 1233.0,736.5 1232.5,737.0 1232.0,737.5 1231.0,737.5 1230.0,737.5 1229.0,737.5 1228.0,737.5 1227.0,737.5 1226.0,737.5 1225.5,737.0 1225.0,736.5 1224.0,736.5 1223.0,736.5 1222.5,736.0 1222.0,735.5 1221.0,735.5 1220.5,735.0 1220.0,734.5 1219.0,734.5 1218.5,734.0 1218.0,733.5 1217.0,733.5 1216.5,733.0 1216.0,732.5 1215.5,732.0 1215.0,731.5 1214.5,731.0 1214.0,730.5 1213.5,730.0 1213.0,729.5 1212.5,729.0 1212.0,728.5 1211.0,728.5 1210.5,728.0 1210.0,727.5 1209.5,727.0 1209.0,726.5 1208.0,726.5 1207.0,726.5 1206.5,726.0 1206.0,725.5 1205.0,725.5 1204.0,725.5 1203.5,725.0 1203.0,724.5 1202.0,724.5 1201.0,724.5 1200.0,724.5 1199.0,724.5 1198.0,724.5 1197.0,724.5 1196.0,724.5 1195.0,724.5 1194.5,724.0 1194.0,723.5 1193.0,723.5 1192.0,723.5 1191.0,723.5 1190.0,723.5 1189.0,723.5 1188.0,723.5 1187.0,723.5 1186.0,723.5 1185.5,723.0 1185.0,722.5 1184.0,722.5 1183.0,722.5 1182.5,722.0 1182.0,721.5 1181.0,721.5 1180.5,721.0 1180.0,720.5 1179.0,720.5 1178.5,720.0 1178.0,719.5 1177.5,719.0 1177.0,718.5 1176.5,718.0 1176.0,717.5 1175.0,717.5 1174.5,717.0 1174.5,716.0 1174.0,715.5 1173.5,715.0 1173.0,714.5 1172.5,714.0 1172.5,713.0 1172.0,712.5 1171.5,712.0 1171.5,711.0 1171.0,710.5 1170.5,710.0 1170.5,709.0 1170.5,708.0 1170.0,707.5 1169.5,707.0 1169.5,706.0 1169.5,705.0 1169.5,704.0 1169.0,703.5 1168.5,703.0 1168.5,702.0 1168.0,701.5 1167.5,701.0 1167.5,700.0 1167.0,699.5 1166.5,699.0 1166.0,698.5 1165.0,698.5 1164.5,698.0 1164.0,697.5 1163.0,697.5 1162.0,697.5 1161.0,697.5 1160.0,697.5 1159.0,697.5 1158.5,698.0 1158.0,698.5 1157.0,698.5 1156.0,698.5 1155.0,698.5 1154.0,698.5 1153.5,699.0 1153.0,699.5 1152.0,699.5 1151.0,699.5 1150.5,700.0 1150.0,700.5 1149.0,700.5 1148.0,700.5 1147.5,701.0 1147.0,701.5 1146.0,701.5 1145.0,701.5 1144.5,702.0 1144.0,702.5 1143.0,702.5 1142.0,702.5 1141.0,702.5 1140.5,703.0 1140.0,703.5 1139.0,703.5 1138.0,703.5 1137.5,704.0 1137.0,704.5 1136.0,704.5 1135.0,704.5 1134.5,705.0 1134.0,705.5 1133.0,705.5 1132.0,705.5 1131.5,706.0 1131.0,706.5 1130.0,706.5 1129.0,706.5 1128.0,706.5 1127.5,707.0 1127.0,707.5 1126.0,707.5 1125.0,707.5 1124.5,708.0 1124.0,708.5 1123.0,708.5 1122.0,708.5 1121.5,709.0 1121.0,709.5 1120.0,709.5 1119.0,709.5 1118.5,710.0 1118.0,710.5 1117.0,710.5 1116.0,710.5 1115.0,710.5 1114.5,711.0 1114.0,711.5 1113.0,711.5 1112.0,711.5 1111.5,712.0 1111.0,712.5 1110.0,712.5 1109.0,712.5 1108.5,713.0 1108.0,713.5 1107.0,713.5 1106.0,713.5 1105.5,714.0 1105.0,714.5 1104.0,714.5 1103.0,714.5 1102.0,714.5 1101.5,715.0 1101.0,715.5 1100.0,715.5 1099.0,715.5 1098.5,716.0 1098.0,716.5 1097.0,716.5 1096.0,716.5 1095.5,717.0 1095.0,717.5 1094.0,717.5 1093.0,717.5 1092.5,718.0 1092.0,718.5 1091.0,718.5 1090.0,718.5 1089.5,719.0 1089.0,719.5 1088.0,719.5 1087.0,719.5 1086.0,719.5 1085.5,720.0 1085.0,720.5 1084.0,720.5 1083.0,720.5 1082.5,721.0 1082.0,721.5 1081.0,721.5 1080.0,721.5 1079.5,722.0 1079.0,722.5 1078.0,722.5 1077.0,722.5 1076.5,723.0 1076.0,723.5 1075.0,723.5 1074.0,723.5 1073.0,723.5 1072.5,724.0 1072.0,724.5 1071.0,724.5 1070.0,724.5 1069.5,725.0 1069.0,725.5 1068.0,725.5 1067.0,725.5 1066.5,726.0 1066.0,726.5 1065.0,726.5 1064.0,726.5 1063.5,727.0 1063.0,727.5 1062.0,727.5 1061.0,727.5 1060.5,728.0 1060.0,728.5 1059.0,728.5 1058.0,728.5 1057.5,729.0 1057.0,729.5 1056.0,729.5 1055.0,729.5 1054.0,729.5 1053.5,730.0 1053.0,730.5 1052.0,730.5 1051.0,730.5 1050.5,731.0 1050.0,731.5 1049.0,731.5 1048.0,731.5 1047.5,732.0 1047.0,732.5 1046.0,732.5 1045.0,732.5 1044.5,733.0 1044.0,733.5 1043.0,733.5 1042.0,733.5 1041.5,734.0 1041.0,734.5 1040.0,734.5 1039.0,734.5 1038.5,735.0 1038.0,735.5 1037.0,735.5 1036.0,735.5 1035.5,736.0 1035.0,736.5 1034.0,736.5 1033.0,736.5 1032.5,737.0 1032.0,737.5 1031.0,737.5 1030.5,738.0 1030.0,738.5 1029.0,738.5 1028.0,738.5 1027.5,739.0 1027.0,739.5 1026.0,739.5 1025.5,740.0 1025.0,740.5 1024.0,740.5 1023.5,741.0 1023.0,741.5 1022.0,741.5 1021.5,742.0 1021.0,742.5 1020.0,742.5 1019.5,743.0 1019.0,743.5 1018.0,743.5 1017.5,744.0 1017.0,744.5 1016.5,745.0 1016.0,745.5 1015.0,745.5 1014.5,746.0 1014.0,746.5 1013.0,746.5 1012.5,747.0 1012.0,747.5 1011.0,747.5 1010.5,748.0 1010.0,748.5 1009.0,748.5 1008.0,748.5 1007.5,749.0 1007.0,749.5 1006.0,749.5 1005.5,750.0 1005.0,750.5 1004.0,750.5 1003.0,750.5 1002.5,751.0 1002.0,751.5 1001.0,751.5 1000.0,751.5 999.0,751.5 998.0,751.5 997.0,751.5 996.0,751.5 995.0,751.5 994.0,751.5 993.0,751.5 992.0,751.5 991.0,751.5 990.5,751.0 990.0,750.5 989.0,750.5 988.5,750.0 988.0,749.5 987.0,749.5 986.5,749.0 986.0,748.5 985.0,748.5 984.5,748.0 984.0,747.5 983.5,747.0 983.0,746.5 982.5,746.0 982.0,745.5 981.5,745.0 981.0,744.5 980.5,744.0 980.0,743.5 979.5,743.0 979.0,742.5 978.5,742.0 978.0,741.5 977.5,741.0 977.5,740.0 977.0,739.5 976.5,739.0 976.5,738.0 976.0,737.5 975.5,737.0 975.5,736.0 975.5,735.0 975.0,734.5 974.5,734.0 974.5,733.0 974.5,732.0 974.5,731.0 974.5,730.0 974.0,729.5 973.5,729.0 973.5,728.0 973.5,727.0 973.5,726.0 973.5,725.0 973.5,724.0 973.5,723.0 974.0,722.5 974.5,722.0 974.5,721.0 974.5,720.0 974.5,719.0 974.5,718.0 974.5,717.0 974.5,716.0 975.0,715.5 975.5,715.0 975.5,714.0 975.5,713.0 975.5,712.0 975.5,711.0 976.0,710.5 976.5,710.0 976.5,709.0 976.5,708.0 976.5,707.0 977.0,706.5 977.5,706.0 977.5,705.0 978.0,704.5 978.5,704.0 978.5,703.0 979.0,702.5 979.5,702.0 979.5,701.0 979.5,700.0 980.0,699.5 980.5,699.0 980.5,698.0 981.0,697.5 981.5,697.0 981.5,696.0 982.0,695.5 982.5,695.0 982.5,694.0 983.0,693.5 983.5,693.0 983.5,692.0 984.0,691.5 984.5,691.0 984.5,690.0 985.0,689.5 985.5,689.0 985.5,688.0 986.0,687.5 986.5,687.0 986.5,686.0 987.0,685.5 987.5,685.0 987.5,684.0 988.0,683.5 988.5,683.0 988.5,682.0 989.0,681.5 989.5,681.0 989.5,680.0 990.0,679.5 990.5,679.0 991.0,678.5 991.5,678.0 991.5,677.0 992.0,676.5 992.5,676.0 992.5,675.0 993.0,674.5 993.5,674.0 993.5,673.0 994.0,672.5 994.5,672.0 995.0,671.5 995.5,671.0 995.5,670.0 996.0,669.5 996.5,669.0 996.5,668.0 997.0,667.5 997.5,667.0 997.5,666.0 998.0,665.5 998.5,665.0 999.0,664.5 999.5,664.0 999.5,663.0 1000.0,662.5 1000.5,662.0 1000.5,661.0 1001.0,660.5 1001.5,660.0 1002.0,659.5 1002.5,659.0 1002.5,658.0 1003.0,657.5 1003.5,657.0 1003.5,656.0 1004.0,655.5 1004.5,655.0 1005.0,654.5 1005.5,654.0 1005.5,653.0 1006.0,652.5 1006.5,652.0 1006.5,651.0 1007.0,650.5 1007.5,650.0 1008.0,649.5 1008.5,649.0 1008.5,648.0 1009.0,647.5 1009.5,647.0 1009.5,646.0 1010.0,645.5 1010.5,645.0 1011.0,644.5 1011.5,644.0 1011.5,643.0 1012.0,642.5 1012.5,642.0 1013.0,641.5 1013.5,641.0 1013.5,640.0 1014.0,639.5 1014.5,639.0 1015.0,638.5 1015.5,638.0 1015.5,637.0 1016.0,636.5 1016.5,636.0 1016.5,635.0 1017.0,634.5 1017.5,634.0 1018.0,633.5 1018.5,633.0 1018.5,632.0 1019.0,631.5 1019.5,631.0 1020.0,630.5 1020.5,630.0 1020.5,629.0 1021.0,628.5 1021.5,628.0 1021.5,627.0 1022.0,626.5 1022.5,626.0 1023.0,625.5 1023.5,625.0 1023.5,624.0 1024.0,623.5 1024.5,623.0 1024.5,622.0 1024.0,621.5 1023.5,622.0 1023.0,622.5 1022.0,622.5 1021.5,623.0 1021.0,623.5 1020.0,623.5 1019.0,623.5 1018.5,624.0 1018.0,624.5 1017.0,624.5 1016.0,624.5 1015.5,625.0 1015.0,625.5 1014.0,625.5 1013.5,626.0 1013.0,626.5 1012.0,626.5 1011.5,627.0 1011.0,627.5 1010.0,627.5 1009.0,627.5 1008.5,628.0 1008.0,628.5 1007.0,628.5 1006.5,629.0 1006.0,629.5 1005.0,629.5 1004.0,629.5 1003.5,630.0 1003.0,630.5 1002.0,630.5 1001.5,631.0 1001.0,631.5 1000.0,631.5 999.5,632.0 999.0,632.5 998.0,632.5 997.0,632.5 996.5,633.0 996.0,633.5 995.0,633.5 994.5,634.0 994.0,634.5 993.0,634.5 992.5,635.0 992.0,635.5 991.0,635.5 990.5,636.0 990.0,636.5 989.0,636.5 988.0,636.5 987.5,637.0 987.0,637.5 986.0,637.5 985.5,638.0 985.0,638.5 984.0,638.5 983.5,639.0 983.0,639.5 982.5,640.0 982.0,640.5 981.0,640.5 980.5,641.0 980.0,641.5 979.0,641.5 978.5,642.0 978.0,642.5 977.0,642.5 976.5,643.0 976.0,643.5 975.5,644.0 975.0,644.5 974.5,645.0 974.0,645.5 973.5,646.0 973.0,646.5 972.0,646.5 971.5,647.0 971.0,647.5 970.5,648.0 970.0,648.5 969.5,649.0 969.0,649.5 968.0,649.5 967.5,650.0 967.0,650.5 966.5,651.0 966.0,651.5 965.5,652.0 965.0,652.5 964.0,652.5 963.5,653.0 963.0,653.5 962.5,654.0 962.0,654.5 961.5,655.0 961.0,655.5 960.0,655.5 959.5,656.0 959.0,656.5 958.5,657.0 958.0,657.5 957.5,658.0 957.0,658.5 956.5,659.0 956.0,659.5 955.0,659.5 954.5,660.0 954.0,660.5 953.5,661.0 953.0,661.5 952.5,662.0 952.0,662.5 951.0,662.5 950.5,663.0 950.0,663.5 949.5,664.0 949.0,664.5 948.5,665.0 948.0,665.5 947.5,666.0 947.0,666.5 946.0,666.5 945.5,667.0 945.0,667.5 944.5,668.0 944.0,668.5 943.5,669.0 943.0,669.5 942.5,670.0 942.0,670.5 941.0,670.5 940.5,671.0 940.0,671.5 939.5,672.0 939.0,672.5 938.5,673.0 938.0,673.5 937.5,674.0 937.0,674.5 936.0,674.5 935.5,675.0 935.0,675.5 934.5,676.0 934.0,676.5 933.5,677.0 933.0,677.5 932.5,678.0 932.0,678.5 931.0,678.5 930.5,679.0 930.0,679.5 929.5,680.0 929.0,680.5 928.5,681.0 928.0,681.5 927.5,682.0 927.0,682.5 926.0,682.5 925.5,683.0 925.0,683.5 924.5,684.0 924.0,684.5 923.5,685.0 923.0,685.5 922.5,686.0 922.0,686.5 921.5,687.0 921.0,687.5 920.5,688.0 920.0,688.5 919.5,689.0 919.0,689.5 918.0,689.5 917.5,690.0 917.0,690.5 916.5,691.0 916.5,692.0 916.0,692.5 915.5,693.0 915.5,694.0 915.5,695.0 915.0,695.5 914.5,696.0 914.5,697.0 914.5,698.0 914.0,698.5 913.5,699.0 913.5,700.0 913.5,701.0 913.0,701.5 912.5,702.0 912.5,703.0 912.0,703.5 911.5,704.0 911.5,705.0 911.0,705.5 910.5,706.0 910.5,707.0 910.0,707.5 909.5,708.0 909.0,708.5 908.5,709.0 908.5,710.0 908.0,710.5 907.5,711.0 907.0,711.5 906.5,712.0 906.0,712.5 905.5,713.0 905.0,713.5 904.5,714.0 904.0,714.5 903.5,715.0 903.0,715.5 902.5,716.0 902.0,716.5 901.5,717.0 901.0,717.5 900.5,718.0 900.0,718.5 899.0,718.5 898.5,719.0 898.0,719.5 897.5,720.0 897.0,720.5 896.0,720.5 895.5,721.0 895.0,721.5 894.0,721.5 893.5,722.0 893.0,722.5 892.0,722.5 891.5,723.0 891.0,723.5 890.0,723.5 889.5,724.0 889.0,724.5 888.0,724.5 887.5,725.0 887.0,725.5 886.0,725.5 885.5,726.0 885.0,726.5 884.0,726.5 883.5,727.0 883.0,727.5 882.5,728.0 882.0,728.5 881.0,728.5 880.5,729.0 880.0,729.5 879.5,730.0 879.0,730.5 878.5,731.0 878.0,731.5 877.5,732.0 877.0,732.5 876.5,733.0 876.0,733.5 875.5,734.0 875.0,734.5 874.5,735.0 874.0,735.5 873.5,736.0 873.0,736.5 872.5,737.0 872.0,737.5 871.5,738.0 871.5,739.0 871.0,739.5 870.5,740.0 870.0,740.5 869.5,741.0 869.0,741.5 868.5,742.0 868.5,743.0 868.0,743.5 867.5,744.0 867.0,744.5 866.5,745.0 866.0,745.5 865.5,746.0 865.5,747.0 865.0,747.5 864.5,748.0 864.0,748.5 863.5,749.0 863.0,749.5 862.5,750.0 862.5,751.0 862.0,751.5 861.5,752.0 861.0,752.5 860.5,753.0 860.0,753.5 859.5,754.0 859.5,755.0 859.0,755.5 858.5,756.0 858.0,756.5 857.5,757.0 857.5,758.0 857.0,758.5 856.5,759.0 856.0,759.5 855.5,760.0 855.0,760.5 854.5,761.0 854.5,762.0 854.0,762.5 853.5,763.0 853.0,763.5 852.5,764.0 852.0,764.5 851.5,765.0 851.5,766.0 851.0,766.5 850.5,767.0 850.0,767.5 849.5,768.0 849.5,769.0 849.0,769.5 848.5,770.0 848.0,770.5 847.5,771.0 847.0,771.5 846.5,772.0 846.5,773.0 846.0,773.5 845.5,774.0 845.0,774.5 844.5,775.0 844.0,775.5 843.5,776.0 843.5,777.0 843.0,777.5 842.5,778.0 842.0,778.5 841.5,779.0 841.0,779.5 840.5,780.0 840.5,781.0 840.0,781.5 839.5,782.0 839.0,782.5 838.5,783.0 838.5,784.0 838.0,784.5 837.5,785.0 837.0,785.5 836.5,786.0 836.0,786.5 835.5,787.0 835.5,788.0 835.0,788.5 834.5,789.0 834.0,789.5 833.5,790.0 833.0,790.5 832.5,791.0 832.5,792.0 832.0,792.5 831.5,793.0 831.0,793.5 830.5,794.0 830.5,795.0 830.0,795.5 829.5,796.0 829.0,796.5 828.5,797.0 828.0,797.5 827.5,798.0 827.5,799.0 827.0,799.5 826.5,800.0 826.0,800.5 825.5,801.0 825.0,801.5 824.5,802.0 824.5,803.0 824.0,803.5 823.5,804.0 823.0,804.5 822.5,805.0 822.5,806.0 822.0,806.5 821.5,807.0 821.0,807.5 820.5,808.0 820.0,808.5 819.5,809.0 819.5,810.0 819.0,810.5 818.5,811.0 818.0,811.5 817.5,812.0 817.0,812.5 816.5,813.0 816.5,814.0 816.0,814.5 815.5,815.0 815.0,815.5 814.5,816.0 814.0,816.5 813.5,817.0 813.5,818.0 813.0,818.5 812.5,819.0 812.0,819.5 811.5,820.0 811.5,821.0 811.0,821.5 810.5,822.0 810.0,822.5 809.5,823.0 809.0,823.5 808.5,824.0 808.5,825.0 808.0,825.5 807.5,826.0 807.0,826.5 806.5,827.0 806.0,827.5 805.5,828.0 805.5,829.0 805.0,829.5 804.5,830.0 804.0,830.5 803.5,831.0 803.0,831.5 802.5,832.0 802.5,833.0 802.0,833.5 801.5,834.0 801.0,834.5 800.5,835.0 800.5,836.0 800.0,836.5 799.5,837.0 799.0,837.5 798.5,838.0 798.0,838.5 797.5,839.0 797.5,840.0 797.0,840.5 796.5,841.0 796.0,841.5 795.5,842.0 795.0,842.5 794.5,843.0 794.5,844.0 794.0,844.5 793.5,845.0 793.0,845.5 792.5,846.0 792.5,847.0 792.0,847.5 791.5,848.0 791.0,848.5 790.5,849.0 790.0,849.5 789.5,850.0 789.5,851.0 789.0,851.5 788.5,852.0 788.0,852.5 787.5,853.0 787.0,853.5 786.5,854.0 786.5,855.0 786.0,855.5 785.5,856.0 785.0,856.5 784.5,857.0 784.0,857.5 783.5,858.0 783.5,859.0 783.0,859.5 782.5,860.0 782.0,860.5 781.5,861.0 781.5,862.0 781.0,862.5 780.5,863.0 780.0,863.5 779.5,864.0 779.0,864.5 778.5,865.0 778.5,866.0 778.0,866.5 777.5,867.0 777.0,867.5 776.5,868.0 776.0,868.5 775.5,869.0 775.5,870.0 775.0,870.5 774.5,871.0 774.0,871.5 773.5,872.0 773.0,872.5 772.5,873.0 772.5,874.0 772.0,874.5 771.5,875.0 771.0,875.5 770.5,876.0 770.0,876.5 769.5,877.0 769.5,878.0 769.0,878.5 768.5,879.0 768.0,879.5 767.5,880.0 767.0,880.5 766.5,881.0 766.5,882.0 766.0,882.5 765.5,883.0 765.0,883.5 764.5,884.0 764.5,885.0 764.0,885.5 763.5,886.0 763.0,886.5 762.5,887.0 762.0,887.5 761.5,888.0 761.0,888.5 760.5,889.0 760.5,890.0 760.0,890.5 759.5,891.0 759.0,891.5 758.5,892.0 758.0,892.5 757.5,893.0 757.5,894.0 757.0,894.5 756.5,895.0 756.0,895.5 755.5,896.0 755.0,896.5 754.5,897.0 754.5,898.0 754.0,898.5 753.5,899.0 753.0,899.5 752.5,900.0 752.0,900.5 751.5,901.0 751.0,901.5 750.5,902.0 750.0,902.5 749.5,903.0 749.0,903.5 748.5,904.0 748.0,904.5 747.5,905.0 747.0,905.5 746.5,906.0 746.5,907.0 746.0,907.5 745.5,908.0 745.0,908.5 744.5,909.0 744.0,909.5 743.5,910.0 743.0,910.5 742.5,911.0 742.0,911.5 741.5,912.0 741.0,912.5 740.5,913.0 740.0,913.5 739.5,914.0 739.0,914.5 738.5,915.0 738.5,916.0 738.0,916.5 737.5,917.0 737.0,917.5 736.5,918.0 736.0,918.5 735.5,919.0 735.0,919.5 734.5,920.0 734.0,920.5 733.5,921.0 733.0,921.5 732.5,922.0 732.5,923.0 732.0,923.5 731.5,924.0 731.0,924.5 730.5,925.0 730.0,925.5 729.5,926.0 729.5,927.0 729.0,927.5 728.5,928.0 728.0,928.5 727.5,929.0 727.5,930.0 727.0,930.5 726.5,931.0 726.0,931.5 725.5,932.0 725.5,933.0 725.0,933.5 724.5,934.0 724.5,935.0 724.0,935.5 723.5,936.0 723.5,937.0 723.0,937.5 722.5,938.0 722.5,939.0 722.0,939.5 721.5,940.0 721.5,941.0 721.0,941.5 720.5,942.0 720.5,943.0 720.0,943.5 719.5,944.0 719.5,945.0 719.0,945.5 718.5,946.0 718.5,947.0 718.0,947.5 717.5,948.0 717.5,949.0 717.0,949.5 716.5,950.0 716.0,950.5 715.5,951.0 715.5,952.0 715.0,952.5 714.0,952.5 713.5,953.0 713.0,953.5 712.0,953.5 711.0,953.5 710.5,954.0 710.0,954.5" /></svg>